<svg width="50" height="50" viewBox="0 0 50 50" fill="none" xmlns="http://www.w3.org/2000/svg">
<g clip-path="url(#clip0_25_1201)">
<circle cx="25" cy="25" r="24" fill="#EFEFF0" stroke="black" stroke-width="2"/>
<mask id="path-2-inside-1_25_1201" fill="white">
<path fill-rule="evenodd" clip-rule="evenodd" d="M6.25 41.5365V40.6251C6.25 34.3907 18.7422 31.2501 25 31.2501C31.2578 31.2501 43.75 34.3907 43.75 40.6251V41.5365C39.1691 46.7266 32.4668 50.0001 25 50.0001C17.5332 50.0001 10.8309 46.7266 6.25 41.5365ZM25 10.4167C19.8203 10.4167 15.625 14.6121 15.625 19.7917C15.625 24.9714 19.8203 29.1667 25 29.1667C30.1797 29.1667 34.375 24.9714 34.375 19.7917C34.375 14.6121 30.1797 10.4167 25 10.4167Z"/>
</mask>
<path fill-rule="evenodd" clip-rule="evenodd" d="M6.25 41.5365V40.6251C6.25 34.3907 18.7422 31.2501 25 31.2501C31.2578 31.2501 43.75 34.3907 43.75 40.6251V41.5365C39.1691 46.7266 32.4668 50.0001 25 50.0001C17.5332 50.0001 10.8309 46.7266 6.25 41.5365ZM25 10.4167C19.8203 10.4167 15.625 14.6121 15.625 19.7917C15.625 24.9714 19.8203 29.1667 25 29.1667C30.1797 29.1667 34.375 24.9714 34.375 19.7917C34.375 14.6121 30.1797 10.4167 25 10.4167Z" fill="#EFEFF0"/>
<path d="M6.25 41.5365H4.25V42.2929L4.75052 42.86L6.25 41.5365ZM43.75 41.5365L45.2495 42.8599L45.75 42.2929V41.5365H43.75ZM8.25 41.5365V40.6251H4.25V41.5365H8.25ZM8.25 40.6251C8.25 39.8011 8.64691 38.9313 9.65614 37.9998C10.679 37.0558 12.1915 36.1896 14.0221 35.4563C17.6864 33.9883 22.1211 33.2501 25 33.2501V29.2501C21.6211 29.2501 16.6808 30.0822 12.5346 31.7431C10.4599 32.5742 8.45825 33.6621 6.94323 35.0604C5.41461 36.4712 4.25 38.3319 4.25 40.6251H8.25ZM25 33.2501C27.8789 33.2501 32.3136 33.9883 35.9779 35.4563C37.8085 36.1896 39.321 37.0558 40.3439 37.9998C41.3531 38.9313 41.75 39.8011 41.75 40.6251H45.75C45.75 38.3319 44.5854 36.4712 43.0568 35.0604C41.5417 33.6621 39.5401 32.5742 37.4654 31.7431C33.3192 30.0822 28.3789 29.2501 25 29.2501V33.2501ZM41.75 40.6251V41.5365H45.75V40.6251H41.75ZM42.2505 40.213C38.0332 44.9913 31.8692 48.0001 25 48.0001V52.0001C33.0645 52.0001 40.305 48.462 45.2495 42.8599L42.2505 40.213ZM25 48.0001C18.1308 48.0001 11.9668 44.9913 7.74948 40.213L4.75052 42.86C9.69497 48.462 16.9355 52.0001 25 52.0001V48.0001ZM17.625 19.7917C17.625 15.7166 20.9249 12.4167 25 12.4167V8.41675C18.7157 8.41675 13.625 13.5075 13.625 19.7917H17.625ZM25 27.1667C20.9249 27.1667 17.625 23.8669 17.625 19.7917H13.625C13.625 26.076 18.7157 31.1667 25 31.1667V27.1667ZM32.375 19.7917C32.375 23.8669 29.0751 27.1667 25 27.1667V31.1667C31.2843 31.1667 36.375 26.076 36.375 19.7917H32.375ZM25 12.4167C29.0751 12.4167 32.375 15.7166 32.375 19.7917H36.375C36.375 13.5075 31.2843 8.41675 25 8.41675V12.4167Z" fill="black" mask="url(#path-2-inside-1_25_1201)"/>
</g>
<defs>
<clipPath id="clip0_25_1201">
<rect width="50" height="50" fill="white"/>
</clipPath>
</defs>
</svg>
