<svg width="86" height="86" viewBox="0 0 86 86" fill="none" xmlns="http://www.w3.org/2000/svg">
<path d="M43 84.2009C64.9538 84.2009 82.7506 73.9255 82.7506 61.2508C82.7506 48.5758 64.9538 38.3008 43 38.3008C21.0461 38.3008 3.24902 48.5758 3.24902 61.2508C3.24902 73.9255 21.0461 84.2009 43 84.2009Z" fill="#F5F5F5"/>
<path d="M70.4513 70.1633C70.2205 69.1022 69.0753 68.259 67.7763 67.8238C67.2001 67.1087 66.1423 66.2985 64.3365 65.4158C60.3357 63.4654 58.1771 62.4575 57.0695 61.957C56.7063 61.8007 56.3127 61.7279 55.9177 61.744C55.5226 61.76 55.1363 61.8646 54.787 62.0499L45.6074 67.4902C45.4819 67.5509 45.3443 67.5826 45.2049 67.5826C45.0655 67.5826 44.9279 67.5509 44.8024 67.4902C44.7763 67.4753 44.7525 67.4572 44.7319 67.4352C44.7511 67.4139 44.7738 67.3958 44.799 67.3822C48.1667 65.4158 53.9528 62.0292 54.8593 61.4341C55.3116 61.1348 55.2996 60.7461 55.1379 60.4864C54.689 59.7588 52.5029 59.2102 51.55 59.7623L39.854 66.5151C39.4584 66.744 39.2417 67.0809 39.2623 67.4384C39.2847 67.8219 39.5685 68.1594 40.0432 68.3657C41.6841 69.0776 44.5307 70.3624 48.7722 72.4303C49.6924 72.8545 50.5586 73.3873 51.3522 74.0178C51.2731 74.0055 51.1939 73.9971 51.1148 73.9887C48.0979 73.6944 46.4708 74.773 46.2403 75.8994C46.0546 76.8008 46.7168 77.6311 47.9259 78.0164C49.6236 78.5583 52.3721 77.86 52.9673 76.3773C53.1163 76.008 53.1315 75.5981 53.0103 75.2179C53.7344 75.6188 54.3054 76.1762 54.4413 76.8021C54.6271 77.6621 53.9545 78.5654 52.496 79.408C48.2906 81.8347 45.1 80.3436 40.3511 77.602C39.6734 77.2101 34.909 74.482 26.5739 69.7139C26.0373 69.4067 25.5915 68.9625 25.2814 68.4278C24.9712 67.8924 24.8077 67.2845 24.8074 66.6664V64.5009C24.8016 64.4234 24.7668 64.351 24.7098 64.2981C24.6528 64.2453 24.5781 64.216 24.5004 64.216C24.4227 64.216 24.3479 64.2453 24.291 64.2981C24.234 64.351 24.1992 64.4234 24.1934 64.5009V66.6683C24.1938 67.3945 24.386 68.1083 24.7505 68.7368C25.115 69.3654 25.639 69.8865 26.2694 70.2473C34.6045 75.0155 39.3672 77.7429 40.0449 78.1335C43.1529 79.9278 45.7071 81.2398 48.337 81.2398C49.7698 81.2398 51.2232 80.8512 52.809 79.9395C54.9728 78.6909 55.217 77.4746 55.045 76.6715C54.8145 75.6033 53.7361 74.7588 52.5183 74.312C51.949 73.591 50.8878 72.7724 49.0525 71.8781C44.8007 69.805 41.9455 68.517 40.2995 67.8018C40.0518 67.6951 39.8935 67.5419 39.8867 67.4022C39.8798 67.2632 39.9847 67.1533 40.1722 67.0446L51.8682 60.2903C52.3446 60.0151 53.4764 60.1682 54.1713 60.4881C54.5377 60.6601 54.6339 60.8011 54.6408 60.8218C54.6477 60.8424 54.6253 60.8596 54.5342 60.9198C53.6398 61.5081 47.864 64.8882 44.5014 66.852C44.3886 66.9024 44.2929 66.9839 44.2256 67.0873C44.1584 67.1908 44.1225 67.3117 44.1225 67.4352C44.1225 67.5587 44.1584 67.6796 44.2256 67.7831C44.2929 67.8865 44.3886 67.968 44.5014 68.0185C44.7214 68.1335 44.966 68.1937 45.2143 68.1937C45.4627 68.1937 45.7073 68.1335 45.9273 68.0185L55.1069 62.5762C55.3723 62.4427 55.6633 62.3681 55.9601 62.3574C56.257 62.3467 56.5527 62.4002 56.8269 62.5143C57.9312 63.0148 60.0829 64.0193 64.0785 65.9661C64.9984 66.3909 65.8642 66.9244 66.6583 67.5542C66.5775 67.5419 66.4986 67.5335 66.4197 67.5244C63.4025 67.2302 61.7754 68.3088 61.5466 69.4358C61.3609 70.3366 62.0231 71.1675 63.2322 71.5529C64.9299 72.0947 67.6786 71.3964 68.2716 69.9137C68.4287 69.5244 68.4378 69.0912 68.2975 68.6961C69.1006 69.0931 69.7388 69.6609 69.8765 70.2939C70.0588 71.1384 69.3417 72.0553 67.8009 72.9444L66.4003 73.7526C66.368 73.7242 66.333 73.699 66.2955 73.677C66.2522 73.6453 66.2005 73.6253 66.1468 73.6201C66.0931 73.6143 66.0388 73.6233 65.9897 73.646L65.3786 73.99C65.3243 73.9563 65.2629 73.9369 65.1995 73.9331C65.1355 73.9292 65.0721 73.9415 65.0139 73.968L62.7197 75.2942C62.6598 75.3349 62.6122 75.3912 62.5819 75.4565C62.5516 75.5224 62.5398 75.5949 62.5477 75.6673C62.5483 75.7151 62.5523 75.7623 62.5597 75.8102L62.4754 75.8651L61.9594 76.1884L61.8597 76.2518L61.3437 76.5822L61.2508 76.6404L60.7245 76.976L60.6402 77.0291L59.9229 77.3116C59.9121 77.3181 59.9022 77.3258 59.8937 77.3355L59.6993 77.5075C59.6788 77.5289 59.663 77.5541 59.6529 77.5819C59.6429 77.6097 59.6387 77.6395 59.6409 77.6692C59.6464 77.7675 59.6748 77.8625 59.7238 77.9479C59.7727 78.0326 59.8409 78.105 59.9229 78.1593C59.948 78.1761 59.9762 78.1871 60.0058 78.1923C60.0353 78.1981 60.0656 78.1968 60.0949 78.1904L60.3426 78.1147C60.3564 78.1115 60.3697 78.1063 60.3822 78.0992L60.9859 77.6194L61.6275 77.2838L61.7238 77.234L62.2673 76.9502L62.3722 76.8952L62.9089 76.6146L63.0017 76.5667C63.0388 76.5971 63.0778 76.6243 63.1187 76.6495C63.1768 76.6915 63.245 76.7167 63.3163 76.7238C63.3876 76.731 63.4595 76.7187 63.5246 76.6889L64.2126 76.2951L65.8261 75.3627C65.8403 75.3543 65.8539 75.344 65.8655 75.3317C65.9056 75.2942 65.938 75.2483 65.9599 75.1978C65.9819 75.1474 65.9929 75.0924 65.9929 75.0375L66.6014 74.6851C66.6434 74.6611 66.677 74.6243 66.6964 74.5803C66.7204 74.526 66.732 74.4672 66.7307 74.4083C66.7301 74.365 66.7255 74.323 66.7171 74.2809C66.7171 74.2809 66.7171 74.2809 66.7171 74.2686L68.1138 73.4623C70.3479 72.1652 70.6214 70.9509 70.4513 70.1633Z" fill="#E0E0E0"/>
<path d="M48.3214 80.3423C45.6915 80.3423 43.1373 79.0297 40.0293 77.236C39.1693 76.7387 32.0639 72.6728 26.2538 69.3498C25.6234 68.9884 25.0994 68.4672 24.7349 67.8387C24.3704 67.2102 24.1782 66.497 24.1777 65.7702V63.5927C24.1836 63.5152 24.2184 63.4429 24.2753 63.39C24.3323 63.3372 24.4071 63.3078 24.4847 63.3078C24.5624 63.3078 24.6372 63.3372 24.6942 63.39C24.7511 63.4429 24.7859 63.5152 24.7918 63.5927V65.7702C24.7922 66.3883 24.9557 66.9955 25.2659 67.5303C25.576 68.0657 26.0218 68.5086 26.5582 68.8164C32.3684 72.1413 39.4754 76.2124 40.3354 76.7045C45.0878 79.4474 48.2749 80.9372 52.4803 78.5105C53.9389 77.6673 54.6114 76.7659 54.4257 75.9046C54.2898 75.28 53.7205 74.7213 52.9946 74.3204C53.1154 74.7006 53.1002 75.1112 52.9516 75.4811C52.3582 76.9625 49.6079 77.6608 47.9103 77.1202C46.7063 76.7355 46.0389 75.9027 46.2247 75.0032C46.4569 73.8749 48.0806 72.7963 51.0992 73.0925C51.1783 73.0925 51.2574 73.1093 51.3383 73.1216C50.5439 72.4918 49.6779 71.9583 48.7583 71.5322C44.5185 69.4682 41.6719 68.1814 40.0293 67.4675C39.5545 67.2632 39.2707 66.9244 39.2484 66.5409C39.226 66.1575 39.4445 65.8529 39.8401 65.6169L51.5361 58.8644C52.4889 58.314 54.6751 58.8644 55.124 59.5885C55.2857 59.8517 55.296 60.2387 54.8453 60.5363C53.9423 61.1297 48.1545 64.5181 44.7851 66.486C44.7601 66.4996 44.7375 66.517 44.718 66.5371C44.7381 66.5597 44.7619 66.5784 44.7885 66.5927C44.914 66.6535 45.0515 66.6845 45.191 66.6845C45.3304 66.6845 45.468 66.6535 45.5935 66.5927L54.7731 61.1503C55.1225 60.9655 55.5088 60.8613 55.9038 60.8452C56.2987 60.8291 56.6923 60.9016 57.0555 61.0574C58.1615 61.5579 60.3235 62.5641 64.3225 64.5163C66.1356 65.4003 67.1935 66.2125 67.7625 66.9244C69.0545 67.3596 70.2067 68.2021 70.4369 69.2651C70.6089 70.0527 70.3354 71.2658 68.0684 72.5745L65.3287 74.1568C65.2582 74.1975 65.1748 74.2085 65.0959 74.1872C65.0176 74.1665 64.9504 74.1148 64.9097 74.0443C64.8696 73.9738 64.8586 73.8904 64.8793 73.8115C64.9006 73.7333 64.9523 73.666 65.0228 73.6253L67.7625 72.043C69.3105 71.1539 70.0212 70.2389 69.8388 69.3945C69.7011 68.7595 69.0629 68.1905 68.2598 67.7967C68.4001 68.1918 68.3904 68.625 68.2339 69.0143C67.6403 70.495 64.8916 71.1933 63.1942 70.6534C61.9902 70.268 61.3229 69.4358 61.5086 68.5358C61.7408 67.4074 63.3645 66.3295 66.3814 66.625C66.4602 66.625 66.5398 66.6425 66.6206 66.6528C65.8266 66.023 64.9607 65.4902 64.0405 65.0647C60.0432 63.118 57.8915 62.1135 56.7889 61.6147C56.515 61.4995 56.2193 61.4452 55.9223 61.4556C55.6253 61.466 55.3341 61.5409 55.0689 61.6749L45.8893 67.1171C45.6693 67.2322 45.4247 67.2923 45.1763 67.2923C44.928 67.2923 44.6834 67.2322 44.4634 67.1171C44.3533 67.0628 44.2599 66.9794 44.1928 66.8765C44.1256 66.7737 44.0873 66.6547 44.0816 66.5319C44.0871 66.4103 44.1248 66.292 44.191 66.1898C44.2572 66.087 44.3494 66.0043 44.4583 65.9493C50.2684 62.5573 53.8305 60.4451 54.491 60.0168C54.5822 59.9566 54.5977 59.9188 54.5977 59.9188C54.5977 59.9188 54.4945 59.7468 54.1281 59.5851C53.4401 59.2652 52.3015 59.1138 51.825 59.389L40.129 66.142C39.9415 66.25 39.8366 66.3806 39.8435 66.4996C39.8504 66.6179 40.0155 66.7918 40.2563 66.8985C41.9041 67.6156 44.761 68.9043 49.0094 70.9748C50.8446 71.8691 51.9059 72.6948 52.4752 73.4106C53.6929 73.8561 54.7714 74.7006 55.0019 75.7688C55.1739 76.5687 54.9279 77.7843 52.7659 79.0368C51.2075 79.9531 49.7541 80.3423 48.3214 80.3423ZM50.1222 73.655C48.1511 73.655 46.9849 74.343 46.825 75.1267C46.7046 75.7087 47.1931 76.2486 48.0961 76.5357C49.4944 76.9812 51.9145 76.4167 52.3823 75.2528C52.5423 74.8538 52.4459 74.4083 52.114 73.9369C51.7656 73.818 51.405 73.7391 51.039 73.7009C50.7156 73.6699 50.4095 73.655 50.1222 73.655ZM65.4179 67.1876C63.4488 67.1876 62.2826 67.8756 62.1227 68.6599C62.0023 69.2412 62.489 69.7811 63.3937 70.0682C64.792 70.5138 67.2123 69.9499 67.6798 68.7854C67.8414 68.3812 67.7399 67.9253 67.3978 67.4507C67.0519 67.3434 66.6969 67.271 66.3367 67.2341C66.0134 67.2031 65.7069 67.1876 65.4179 67.1876Z" fill="#455A64"/>
<path d="M65.9654 72.7437C66.0146 72.7218 66.0689 72.7127 66.1226 72.7185C66.1762 72.7237 66.2279 72.7431 66.2713 72.7748C66.3974 72.8569 66.5028 72.9681 66.5778 73.0981C66.6534 73.2287 66.6967 73.3748 66.7052 73.5249C66.711 73.5792 66.7019 73.6341 66.6793 73.6833C66.6567 73.7331 66.6211 73.7757 66.5758 73.8068L64.8442 74.8064L64.2334 73.7434L65.9654 72.7437Z" fill="#37474F"/>
<path opacity="0.1" d="M66.6529 73.2617C66.6846 73.3458 66.7021 73.435 66.7047 73.5249C66.7105 73.5792 66.7014 73.6342 66.6788 73.6833C66.6562 73.7331 66.6206 73.7758 66.576 73.8068L64.8437 74.8065L64.627 74.4295L66.6529 73.2617Z" fill="black"/>
<path d="M64.9728 74.5253C64.965 74.3753 64.9217 74.2292 64.8461 74.0985C64.771 73.9686 64.6656 73.8574 64.5396 73.7752C64.4962 73.7442 64.4451 73.7242 64.3917 73.7183C64.3384 73.7132 64.2844 73.7209 64.2352 73.7429C64.1904 73.7739 64.1548 73.8166 64.1321 73.8664C64.1094 73.9156 64.1004 73.9705 64.1062 74.0248C64.1143 74.1755 64.1579 74.3216 64.2331 74.4516C64.3085 74.5822 64.4135 74.6928 64.5396 74.7749C64.5809 74.8118 64.6328 74.835 64.6876 74.8409C64.7432 74.8467 64.7988 74.8344 64.8467 74.8072C64.8945 74.7794 64.9327 74.7374 64.9553 74.687C64.978 74.6359 64.9844 74.5796 64.9728 74.5253Z" fill="#37474F"/>
<path d="M64.9898 73.0766C65.0545 73.0462 65.1263 73.0339 65.198 73.041C65.2692 73.0481 65.3377 73.074 65.3952 73.116C65.5627 73.2253 65.7024 73.3721 65.802 73.5454C65.9015 73.718 65.9591 73.9127 65.9701 74.1118C65.9779 74.1836 65.9656 74.2567 65.9352 74.322C65.9054 74.3879 65.8576 74.4442 65.7981 74.4849L63.5018 75.8092L62.6934 74.4009L64.9898 73.0766Z" fill="#455A64"/>
<path opacity="0.1" d="M65.9018 73.7617C65.9438 73.8716 65.9671 73.988 65.9703 74.1057C65.9781 74.1775 65.9665 74.2506 65.9361 74.3159C65.9057 74.3818 65.8585 74.4381 65.7983 74.4788L63.5023 75.8037L63.2168 75.3065L65.9018 73.7617Z" fill="black"/>
<path d="M63.6723 75.4368C63.6618 75.2376 63.6043 75.0436 63.5045 74.871C63.4046 74.6977 63.2653 74.5509 63.0978 74.4423C63.0443 74.3899 62.9749 74.3563 62.9005 74.3466C62.826 74.3369 62.7504 74.3524 62.6853 74.3899C62.6201 74.4274 62.5691 74.485 62.5398 74.5541C62.5106 74.6233 62.5048 74.7003 62.5233 74.7727C62.5344 74.9725 62.5921 75.1665 62.6919 75.3391C62.7917 75.5124 62.9308 75.6592 63.0978 75.7685C63.1515 75.8215 63.221 75.8558 63.2958 75.8648C63.3705 75.8745 63.4464 75.8597 63.5116 75.8215C63.5769 75.784 63.628 75.7258 63.657 75.6566C63.686 75.5868 63.6914 75.5098 63.6723 75.4368Z" fill="#37474F"/>
<path d="M63.0981 74.7293C63.0655 74.7053 63.0271 74.6905 62.9868 74.6866C62.9465 74.6827 62.906 74.6898 62.8693 74.7066L60.6196 76.1382L59.9023 76.4182L60.3616 77.2181L60.9653 76.7383L63.3286 75.5084C63.3621 75.4852 63.3888 75.4535 63.4057 75.4166C63.4227 75.3798 63.4293 75.339 63.4249 75.2983C63.4192 75.1845 63.3866 75.0739 63.3297 74.975C63.273 74.876 63.1936 74.792 63.0981 74.7293Z" fill="#BA68C8"/>
<path opacity="0.7" d="M63.0981 74.7293C63.0655 74.7053 63.0271 74.6905 62.9868 74.6866C62.9465 74.6827 62.906 74.6898 62.8693 74.7066L60.6196 76.1382L59.9023 76.4182L60.3616 77.2181L60.9653 76.7383L63.3286 75.5084C63.3621 75.4852 63.3888 75.4535 63.4057 75.4166C63.4227 75.3798 63.4293 75.339 63.4249 75.2983C63.4192 75.1845 63.3866 75.0739 63.3297 74.975C63.273 74.876 63.1936 74.792 63.0981 74.7293Z" fill="#B8C1EC"/>
<path d="M60.1308 76.4422C60.0981 76.4189 60.0597 76.4041 60.0196 76.3995C59.9795 76.3957 59.9389 76.4021 59.902 76.4183L59.8728 76.4422L59.6836 76.6233L60.0792 77.3113L60.3268 77.2369C60.3407 77.233 60.3541 77.2272 60.3664 77.2201C60.4 77.1968 60.4267 77.1645 60.4437 77.1276C60.4606 77.0901 60.4672 77.0487 60.4627 77.0086C60.456 76.8942 60.4224 76.7836 60.3647 76.6853C60.307 76.5871 60.2268 76.5036 60.1308 76.4422Z" fill="#BA68C8"/>
<path opacity="0.5" d="M60.1308 76.4422C60.0981 76.4189 60.0597 76.4041 60.0196 76.3995C59.9795 76.3957 59.9389 76.4021 59.902 76.4183L59.8728 76.4422L59.6836 76.6233L60.0792 77.3113L60.3268 77.2369C60.3407 77.233 60.3541 77.2272 60.3664 77.2201C60.4 77.1968 60.4267 77.1645 60.4437 77.1276C60.4606 77.0901 60.4672 77.0487 60.4627 77.0086C60.456 76.8942 60.4224 76.7836 60.3647 76.6853C60.307 76.5871 60.2268 76.5036 60.1308 76.4422Z" fill="#B8C1EC"/>
<path d="M60.1875 77.1132C60.1819 77.0149 60.1533 76.9192 60.104 76.8339C60.0547 76.7492 59.9861 76.6768 59.9037 76.6231C59.8766 76.5992 59.8428 76.5843 59.807 76.5811C59.7711 76.5772 59.7351 76.5849 59.704 76.603C59.6728 76.6211 59.6481 76.6489 59.6333 76.6813C59.6186 76.7143 59.6144 76.7511 59.6216 76.786C59.627 76.8843 59.6553 76.98 59.7043 77.0647C59.7533 77.1501 59.8216 77.2225 59.9037 77.2762C59.9306 77.3007 59.9646 77.3163 60.0008 77.3201C60.0371 77.324 60.0736 77.3163 60.1051 77.2982C60.1367 77.28 60.1617 77.2522 60.1765 77.2193C60.1913 77.1856 60.1951 77.1488 60.1875 77.1132Z" fill="#BA68C8"/>
<path d="M60.6201 76.138C60.6478 76.1251 60.6782 76.1199 60.7084 76.1232C60.7386 76.1264 60.7675 76.1374 60.7921 76.1548C60.8631 76.2014 60.9221 76.2641 60.9645 76.3378C61.0069 76.4109 61.0315 76.4937 61.0363 76.5784C61.04 76.6088 61.0354 76.6398 61.023 76.6676C61.0105 76.6961 60.9908 76.72 60.9659 76.7381L61.0553 76.6915C61.0799 76.6728 61.0993 76.6476 61.1116 76.6191C61.124 76.5907 61.1288 76.559 61.1258 76.5279C61.121 76.4432 61.0963 76.3605 61.0535 76.2861C61.0108 76.2124 60.9513 76.1497 60.8799 76.1031C60.855 76.0863 60.8264 76.0753 60.7964 76.0714C60.7664 76.0682 60.7361 76.0721 60.7079 76.0824L60.6201 76.138Z" fill="#BA68C8"/>
<path d="M61.2314 75.7487C61.2613 75.7351 61.2942 75.7299 61.3269 75.7331C61.3595 75.7364 61.3906 75.7487 61.4172 75.7681C61.4949 75.8185 61.5595 75.887 61.6058 75.9672C61.6522 76.0474 61.6789 76.1379 61.6838 76.2304C61.6872 76.2634 61.6821 76.2963 61.6688 76.3267C61.6556 76.3565 61.6346 76.383 61.6081 76.4024L61.7044 76.3507C61.7306 76.3313 61.7515 76.3047 61.765 76.275C61.7785 76.2446 61.7843 76.2116 61.7818 76.1787C61.7765 76.0868 61.7496 75.997 61.7033 75.9168C61.657 75.8366 61.5926 75.7687 61.5152 75.7183C61.488 75.6982 61.4563 75.6853 61.4229 75.6814C61.3895 75.6769 61.3556 75.6814 61.3243 75.6937L61.2314 75.7487Z" fill="#BA68C8"/>
<path d="M61.8408 75.3607C61.8732 75.3465 61.9089 75.3407 61.9442 75.3446C61.9795 75.3478 62.0133 75.3607 62.042 75.3814C62.1261 75.4364 62.1961 75.5101 62.2462 75.5974C62.2965 75.6841 62.3255 75.7817 62.331 75.8819C62.335 75.9181 62.3294 75.9537 62.3149 75.9867C62.3004 76.0196 62.2775 76.0481 62.2484 76.0694L62.3534 76.0145C62.3824 75.9918 62.4053 75.9627 62.4197 75.9291C62.4342 75.8955 62.4398 75.8586 62.436 75.8218C62.4304 75.7216 62.4014 75.6239 62.3512 75.5373C62.301 75.45 62.2311 75.3763 62.147 75.3213C62.1174 75.3 62.083 75.287 62.0469 75.2825C62.0108 75.2786 61.9742 75.2838 61.9406 75.2974L61.8408 75.3607Z" fill="#BA68C8"/>
<path d="M62.4512 74.9704C62.4862 74.9549 62.5245 74.9491 62.5625 74.9529C62.6005 74.9568 62.6368 74.9704 62.6679 74.993C62.7584 75.0519 62.8338 75.1314 62.8879 75.2245C62.942 75.3183 62.9733 75.423 62.9793 75.531C62.9835 75.5698 62.9772 75.6093 62.9612 75.6448C62.9452 75.6804 62.9199 75.7114 62.8881 75.7341L63.0033 75.6739C63.0344 75.65 63.0589 75.6183 63.0742 75.5821C63.0896 75.5459 63.0954 75.5065 63.0911 75.4677C63.0852 75.3597 63.0542 75.2549 63.0005 75.1612C62.9467 75.068 62.8717 74.9885 62.7815 74.929C62.7496 74.9057 62.7123 74.8915 62.6732 74.8864C62.6341 74.8818 62.5944 74.887 62.5579 74.9019L62.4512 74.9704Z" fill="#BA68C8"/>
<g opacity="0.1">
<path d="M60.6201 76.1361C60.6478 76.1231 60.6782 76.118 60.7084 76.1212C60.7386 76.1244 60.7675 76.1354 60.7921 76.1529C60.8631 76.1994 60.9221 76.2622 60.9645 76.3359C61.0069 76.4089 61.0315 76.4917 61.0363 76.5764C61.04 76.6068 61.0354 76.6378 61.023 76.6657C61.0105 76.6941 60.9908 76.718 60.9659 76.7361L61.0553 76.6896C61.0799 76.6708 61.0993 76.6456 61.1116 76.6172C61.124 76.5887 61.1288 76.557 61.1258 76.526C61.121 76.4413 61.0963 76.3585 61.0535 76.2841C61.0108 76.2104 60.9513 76.1477 60.8799 76.1012C60.855 76.0843 60.8264 76.0733 60.7964 76.0695C60.7664 76.0662 60.7361 76.0701 60.7079 76.0805L60.6201 76.1361Z" fill="black"/>
<path d="M61.2324 75.7467C61.2623 75.7331 61.2952 75.728 61.3279 75.7312C61.3605 75.7344 61.3916 75.7467 61.4182 75.7661C61.4959 75.8165 61.5605 75.8851 61.6068 75.9653C61.6532 76.0454 61.6799 76.136 61.6848 76.2284C61.6882 76.2614 61.6831 76.2944 61.6698 76.3248C61.6565 76.3545 61.6356 76.381 61.6091 76.4004L61.7054 76.3487C61.7316 76.3293 61.7524 76.3028 61.7659 76.273C61.7795 76.2427 61.7853 76.2097 61.7828 76.1767C61.7775 76.0849 61.7506 75.995 61.7043 75.9148C61.658 75.8346 61.5936 75.7667 61.5162 75.7163C61.489 75.6963 61.4572 75.6833 61.4239 75.6795C61.3905 75.6749 61.3566 75.6795 61.3253 75.6917L61.2324 75.7467Z" fill="black"/>
<path d="M61.8418 75.3588C61.8742 75.3446 61.9099 75.3387 61.9452 75.3426C61.9805 75.3459 62.0142 75.3588 62.043 75.3795C62.1271 75.4344 62.197 75.5082 62.2472 75.5955C62.2975 75.6821 62.3265 75.7797 62.332 75.88C62.3359 75.9162 62.3303 75.9517 62.3158 75.9847C62.3013 76.0177 62.2785 76.0461 62.2494 76.0675L62.3544 76.0125C62.3834 75.9899 62.4062 75.9608 62.4207 75.9272C62.4351 75.8935 62.4408 75.8567 62.4369 75.8198C62.4314 75.7196 62.4023 75.622 62.3522 75.5353C62.302 75.448 62.232 75.3743 62.148 75.3193C62.1184 75.298 62.084 75.2851 62.0479 75.2806C62.0118 75.2767 61.9752 75.2818 61.9416 75.2954L61.8418 75.3588Z" fill="black"/>
<path d="M62.4521 74.9704C62.4871 74.9549 62.5255 74.9491 62.5635 74.9529C62.6015 74.9568 62.6378 74.9704 62.6689 74.993C62.7594 75.0519 62.8348 75.1314 62.8889 75.2245C62.9429 75.3183 62.9742 75.423 62.9802 75.531C62.9844 75.5698 62.9782 75.6093 62.9621 75.6448C62.9462 75.6804 62.9209 75.7114 62.8891 75.7341L63.0043 75.6739C63.0354 75.65 63.0598 75.6183 63.0752 75.5821C63.0906 75.5459 63.0963 75.5065 63.092 75.4677C63.0862 75.3597 63.0552 75.2549 63.0014 75.1612C62.9476 75.068 62.8726 74.9885 62.7824 74.929C62.7506 74.9057 62.7133 74.8915 62.6742 74.8864C62.6351 74.8818 62.5954 74.887 62.5588 74.9019L62.4521 74.9704Z" fill="black"/>
</g>
<path d="M40.611 32.6459C40.5474 32.6717 40.4837 32.6957 40.4235 32.7267C40.3633 32.7577 40.3255 32.7783 40.2791 32.8041C40.2326 32.8299 40.1621 32.8712 40.1071 32.9073C40.052 32.9434 40.0159 32.9709 39.9712 33.0053C39.9265 33.0397 39.8663 33.0879 39.8147 33.1326C39.7631 33.1773 39.7321 33.2066 39.6925 33.2461C39.653 33.2857 39.5962 33.3442 39.5498 33.3958C39.5033 33.4474 39.4758 33.4835 39.4397 33.5282C39.4036 33.5729 39.3537 33.6417 39.3124 33.7002C39.2711 33.7587 39.2488 33.7931 39.2195 33.8413L39.1989 33.8757C39.1662 33.9307 39.1353 33.9875 39.106 34.0477C39.0957 34.0649 39.0871 34.0821 39.0785 34.0993C39.0544 34.1457 39.0303 34.1939 39.0097 34.242C38.9891 34.2902 38.9719 34.328 38.9547 34.371C38.9375 34.414 38.9306 34.4243 38.9203 34.4536L38.8893 34.531C38.8687 34.586 38.8497 34.6428 38.8325 34.703C38.8153 34.7632 38.7999 34.8027 38.7861 34.8526C38.7603 34.9438 38.7345 35.0367 38.7139 35.133C38.6978 35.1972 38.6841 35.2625 38.6726 35.3291C38.6726 35.3652 38.6588 35.3996 38.6519 35.4374C38.6451 35.4753 38.6382 35.5148 38.633 35.5561C38.6175 35.6524 38.6072 35.7539 38.5969 35.8554C38.5969 35.9035 38.5849 35.95 38.5814 35.9981C38.5814 36.0171 38.5814 36.0343 38.5814 36.0532C38.5694 36.2252 38.5625 36.3869 38.5625 36.5606C38.5675 37.2609 38.6512 37.9585 38.8119 38.6401C39.4517 41.4523 41.2801 44.3591 43.5161 46.0223C43.778 46.2205 44.0514 46.4031 44.3348 46.5693L44.4518 46.6329C44.5171 46.669 44.5825 46.7069 44.6479 46.7395L44.7975 46.8135L44.9592 46.8909L45.1226 46.9614L45.2653 47.0199C45.3221 47.0423 45.3771 47.0629 45.4373 47.0818L45.5732 47.1283L45.7366 47.1799L45.8811 47.2177L46.029 47.2555L46.2251 47.2934L46.3163 47.3106L46.3937 47.3192L47.5667 46.6449C46.8398 46.5283 46.142 46.2731 45.5113 45.8933C42.3121 44.0495 39.7321 39.5603 39.7321 35.8795C39.7321 34.3848 40.1587 33.253 40.8776 32.5547L40.7641 32.5874C40.7108 32.6046 40.6609 32.6252 40.611 32.6459Z" fill="#263238"/>
<path d="M41.6468 31.4004C41.4681 31.4627 41.2954 31.541 41.1308 31.6343L39.9629 32.3085C40.4771 32.0177 41.0561 31.8609 41.6468 31.8527V31.4004Z" fill="#37474F"/>
<path d="M46.3186 47.3108L46.2274 47.2936L46.0313 47.2557L45.8834 47.2179L45.787 47.1938L45.7389 47.1801L45.5806 47.1285L45.4448 47.082L45.2728 47.0201L45.13 46.9616L44.9666 46.8911L44.805 46.8137L44.6553 46.7397C44.59 46.7071 44.5228 46.6692 44.4558 46.6314C44.4196 46.6107 44.3818 46.5935 44.344 46.5712C44.0708 46.4104 43.8067 46.2347 43.5528 46.0449C42.8246 45.5024 42.1645 44.874 41.5868 44.1735C41.0878 43.5723 40.6402 42.9302 40.2486 42.254C39.6019 41.1453 39.1204 39.9482 38.8194 38.7005L38.809 38.642C38.6485 37.9615 38.5648 37.2651 38.5596 36.5659C38.5596 36.4043 38.5596 36.2477 38.5768 36.0929C38.5768 36.0706 38.5768 36.0482 38.5768 36.0259C38.576 36.0104 38.576 35.9949 38.5768 35.9794C38.5872 35.8504 38.6009 35.7231 38.6198 35.5993L38.6302 35.5202C38.6302 35.4789 38.6456 35.4411 38.6525 35.3998C38.6594 35.3585 38.6748 35.2863 38.6869 35.2278C38.699 35.1693 38.711 35.1074 38.7248 35.0558C38.7385 35.0042 38.7592 34.9319 38.778 34.87C38.778 34.8459 38.7901 34.8219 38.797 34.7995C38.8038 34.7771 38.797 34.7806 38.8056 34.772C38.821 34.7221 38.8366 34.6705 38.8538 34.6206C38.871 34.5707 38.8984 34.5037 38.9226 34.4486C38.9466 34.3936 38.981 34.299 39.0154 34.2267C39.0498 34.1545 39.0653 34.127 39.0911 34.0771L39.122 34.0186C39.1496 33.967 39.1788 33.9171 39.208 33.8673C39.2373 33.8174 39.2648 33.7795 39.294 33.7365L39.3336 33.6798C39.3542 33.6471 39.3766 33.6161 39.399 33.5869L39.4523 33.5198C39.4678 33.5009 39.4816 33.4803 39.4988 33.4613L39.5934 33.353L39.626 33.3203C39.6656 33.279 39.7052 33.2377 39.7482 33.1982C39.767 33.181 39.7894 33.1655 39.8084 33.15C39.86 33.1053 39.9116 33.0623 39.9648 33.0227C40.0182 32.9832 40.0543 32.9557 40.1008 32.9247C40.1472 32.8937 40.2142 32.8542 40.2728 32.8215C40.3312 32.7888 40.3674 32.7682 40.4172 32.7441C40.4671 32.72 40.541 32.6891 40.6047 32.6633C40.6684 32.6375 40.7044 32.622 40.756 32.6048C40.8076 32.5876 40.8334 32.5807 40.873 32.5687L40.9608 32.5463C41.0124 32.5343 41.064 32.5188 41.1172 32.5085C41.1706 32.4981 41.2686 32.4844 41.3443 32.4758C41.42 32.4672 41.4458 32.4603 41.4991 32.4569C41.5524 32.4534 41.592 32.4569 41.6402 32.4569V31.8789C41.0495 31.8871 40.4704 32.0439 39.9562 32.3347C39.884 32.3777 39.8135 32.4225 39.743 32.4706L39.7068 32.4947C39.5059 32.6379 39.3207 32.8023 39.1548 32.9849L39.098 33.0468C39.0481 33.1036 39 33.1621 38.9518 33.2188L38.9105 33.279C38.8308 33.3864 38.7568 33.4977 38.6886 33.6127C38.6646 33.6557 38.6388 33.6987 38.6146 33.7434C38.5906 33.7881 38.5544 33.8569 38.5252 33.9154C38.496 33.9739 38.4702 34.0341 38.4426 34.0874C38.4152 34.1407 38.391 34.2078 38.367 34.2697C38.3292 34.3661 38.2948 34.4658 38.262 34.5673C38.2483 34.6155 38.2328 34.6653 38.219 34.7152C38.195 34.8012 38.1726 34.8872 38.1502 34.9784C38.14 35.0231 38.1296 35.0661 38.121 35.1108C38.0924 35.2415 38.0683 35.3757 38.0488 35.5133C38.0488 35.5477 38.0402 35.5821 38.0368 35.6148C38.0212 35.7317 38.0092 35.8487 38.0006 35.9588C38.0006 36.0018 38.0006 36.0448 37.992 36.0878C37.9817 36.2409 37.9766 36.3957 37.9766 36.5539C37.9906 37.5742 38.1534 38.5871 38.4598 39.5605C38.6172 40.076 38.8044 40.582 39.0206 41.0758C39.1352 41.3258 39.2499 41.5729 39.3646 41.8171C39.7367 42.5514 40.1688 43.2539 40.6563 43.9172C41.6246 45.233 42.7926 46.3493 44.0482 47.0734C44.5467 47.3702 45.0815 47.6015 45.6392 47.7614L46.389 47.3314L46.3186 47.3108Z" fill="#455A64"/>
<path d="M52.2037 41.4718C52.2037 38.1074 49.8422 34.0173 46.9285 32.3351C45.4665 31.4923 44.1455 31.4149 43.1909 31.9705C42.9002 32.1425 40.9549 33.2622 40.6574 33.429C39.6976 33.9777 39.1094 35.1611 39.1094 36.8484C39.1094 40.2127 41.4709 44.3029 44.3846 45.985C45.8432 46.8278 47.1641 46.9052 48.1187 46.3514C48.4111 46.1794 50.372 45.0545 50.666 44.8842C51.6138 44.3338 52.2037 43.1522 52.2037 41.4718Z" fill="#BA68C8"/>
<path opacity="0.3" d="M52.2037 41.4718C52.2037 38.1074 49.8422 34.0173 46.9285 32.3351C45.4665 31.4923 44.1455 31.4149 43.1909 31.9705C42.9002 32.1425 40.9549 33.2622 40.6574 33.429C39.6976 33.9777 39.1094 35.1611 39.1094 36.8484C39.1094 40.2127 41.4709 44.3029 44.3846 45.985C45.8432 46.8278 47.1641 46.9052 48.1187 46.3514C48.4111 46.1794 50.372 45.0545 50.666 44.8842C51.6138 44.3338 52.2037 43.1522 52.2037 41.4718Z" fill="black"/>
<path d="M44.3758 33.8005C47.2878 35.4827 49.6494 39.5746 49.6494 42.9372C49.6494 46.2998 47.2998 47.6655 44.3758 45.9833C41.4518 44.3011 39.1006 40.211 39.1006 36.8467C39.1006 33.4823 41.4656 32.1184 44.3758 33.8005Z" fill="#BA68C8"/>
<path d="M46.6118 47.3449H46.6376C46.727 47.3449 46.8096 47.3552 46.9024 47.3569H46.9454C47.0719 47.3574 47.1983 47.3499 47.3238 47.3345H47.3376C47.443 47.3206 47.5474 47.3011 47.6506 47.276C47.6936 47.2674 47.7384 47.2571 47.7814 47.2451C47.8622 47.2227 47.943 47.1969 48.0222 47.1677C48.1013 47.1385 48.1408 47.1195 48.1942 47.092C48.2234 47.08 48.2492 47.0662 48.2768 47.0525C48.5298 46.9245 48.7618 46.7585 48.9648 46.5605C48.5068 46.6868 48.0275 46.7155 47.5578 46.6448L46.3848 47.319C46.4673 47.3294 46.5396 47.3397 46.6118 47.3449Z" fill="#263238"/>
<path d="M45.8015 32.8033C45.8315 33.2543 46.0261 33.6785 46.3485 33.9953C48.8614 36.3053 50.6983 40.0549 50.6983 43.2317C50.6983 45.5433 49.7283 47.1877 48.1425 47.7398C48.345 47.6738 48.5395 47.5849 48.7221 47.4749L49.8899 46.8007C51.1318 46.0851 51.8714 44.5647 51.8714 42.554C51.8714 39.3789 50.0327 35.6275 47.5198 33.3193C47.1983 33.0019 47.0039 32.578 46.9729 32.1273V27.4473L45.8015 28.1249L45.2236 27.7913L45.8015 28.1249V32.8033Z" fill="#37474F"/>
<path d="M46.3485 33.995C46.0261 33.6783 45.8315 33.254 45.8015 32.8031V28.1247L45.2236 27.791V33.0834C45.2251 33.154 45.2332 33.2242 45.2477 33.2933L45.258 33.3449C45.2745 33.4185 45.2957 33.4908 45.3217 33.5616C45.3636 33.6713 45.4148 33.7771 45.4747 33.8781L45.5229 33.9486C45.5676 34.0198 45.6183 34.0871 45.6743 34.1498C45.7083 34.1891 45.7451 34.2259 45.7843 34.2599C45.9237 34.382 46.0595 34.5093 46.1937 34.6383L46.3003 34.7432C46.4173 34.8602 46.5325 34.9789 46.6443 35.1027L46.6959 35.156C46.8232 35.2954 46.9471 35.4381 47.0709 35.586L47.1637 35.6996C47.2653 35.8234 47.365 35.9507 47.4613 36.078L47.5319 36.1708C47.6471 36.3239 47.7589 36.4822 47.8673 36.6404L47.9429 36.7556C48.0323 36.8881 48.1149 37.024 48.2027 37.1598L48.2749 37.2768C48.3763 37.4488 48.4727 37.6105 48.5673 37.7808L48.6206 37.8822C48.698 38.025 48.7737 38.1695 48.8459 38.3157L48.913 38.4516C48.9979 38.6247 49.0787 38.8002 49.1555 38.9779C49.1641 39.002 49.1745 39.0243 49.1831 39.0484C49.2501 39.2049 49.3137 39.3632 49.3757 39.5231C49.3929 39.5713 49.4118 39.6177 49.429 39.6659C49.4961 39.8379 49.5597 40.0288 49.6165 40.2094C49.6733 40.39 49.7265 40.574 49.7747 40.7564L49.8057 40.8733C49.8504 41.0453 49.8917 41.2276 49.9278 41.4048L49.9433 41.4942C49.9754 41.6571 50.0029 41.8188 50.0259 41.9793C50.0259 42.0085 50.0345 42.0395 50.0396 42.0687C50.0619 42.2407 50.0809 42.4127 50.0929 42.5847C50.0929 42.6226 50.0929 42.6604 50.1015 42.6982C50.1119 42.8702 50.1205 43.0526 50.1205 43.2263C50.1205 44.2583 49.9157 45.1183 49.5494 45.7908C49.4708 45.9348 49.3817 46.0727 49.2828 46.2036C49.2347 46.2672 49.1847 46.3292 49.1331 46.3876C49.0815 46.4461 49.0283 46.5012 48.9732 46.5596C48.7703 46.7577 48.5383 46.9236 48.2852 47.0516C48.2594 47.0653 48.2319 47.0791 48.2027 47.0911C48.1459 47.1186 48.0874 47.1444 48.0307 47.1668C47.9739 47.1892 47.8827 47.2184 47.8087 47.239H47.7899C47.7469 47.2511 47.7039 47.2614 47.6591 47.27L47.5817 47.2906C47.5043 47.3061 47.4252 47.3182 47.3461 47.3285H47.3323C47.2068 47.3439 47.0804 47.3513 46.9539 47.3508H46.8559C46.7871 47.3508 46.7165 47.3508 46.6461 47.3388H46.6117C46.5394 47.3388 46.4671 47.325 46.3932 47.3147L45.6433 47.7447C46.0594 47.8647 46.4899 47.9272 46.9229 47.9305C46.9815 47.9305 47.0382 47.9305 47.0949 47.9219C47.1517 47.9133 47.2515 47.9219 47.3237 47.9098L47.4561 47.8909C47.5405 47.8789 47.6281 47.8668 47.7021 47.8514C47.7417 47.8514 47.7813 47.8342 47.8208 47.8238L47.8689 47.8101C47.9429 47.7912 48.0169 47.774 48.0891 47.7499L48.1407 47.7344C49.7265 47.1874 50.6967 45.538 50.6967 43.2263C50.6983 40.0546 48.8614 36.305 46.3485 33.995Z" fill="#455A64"/>
<path d="M43.1719 32.5489L43.196 32.5386C43.21 32.5334 43.2233 32.5265 43.2355 32.518L44.4086 31.8402C44.4841 31.7921 44.5452 31.7246 44.5854 31.6447C44.6257 31.5648 44.6436 31.4754 44.6373 31.3862V26.0938L43.466 26.7714V32.0638C43.4744 32.1653 43.4504 32.2669 43.3976 32.354C43.3448 32.4411 43.2658 32.5093 43.1719 32.5489Z" fill="#37474F"/>
<path d="M41.7583 31.8501C42.0399 31.8512 42.3208 31.8777 42.5977 31.9292C42.6317 31.9385 42.6676 31.9396 42.7021 31.9323C42.7367 31.9251 42.7691 31.9098 42.7966 31.8876C42.8242 31.8655 42.846 31.8371 42.8605 31.8049C42.8749 31.7726 42.8815 31.7374 42.8798 31.7021V31.1758C42.459 31.1808 42.0421 31.2564 41.6465 31.3994V31.8569C41.6844 31.8552 41.7205 31.8501 41.7583 31.8501Z" fill="#37474F"/>
<path d="M41.9058 32.4323C42.0451 32.4374 42.1841 32.4501 42.3221 32.4701C42.4562 32.4907 42.5938 32.5183 42.7314 32.5527H42.7572H42.7709C42.8151 32.5633 42.8599 32.5708 42.9051 32.575H42.9171C42.9543 32.5785 42.9918 32.5785 43.0289 32.575H43.0496C43.0846 32.5692 43.1191 32.5606 43.1528 32.5492C43.2467 32.5097 43.3257 32.4415 43.3785 32.3544C43.4313 32.2673 43.4553 32.1657 43.4469 32.0642V26.7717L42.869 26.4277V31.6944C42.8708 31.7297 42.8642 31.7648 42.8498 31.7971C42.8353 31.8294 42.8134 31.8577 42.7859 31.8799C42.7583 31.902 42.726 31.9173 42.6914 31.9246C42.6568 31.9318 42.621 31.9307 42.5869 31.9214C42.3101 31.8699 42.0291 31.8434 41.7475 31.8423C41.7097 31.8423 41.6736 31.8423 41.6357 31.8423V32.4202C41.6771 32.4202 41.7166 32.4202 41.7579 32.4202C41.7991 32.4202 41.8593 32.4305 41.9058 32.4323Z" fill="#455A64"/>
<path d="M51.6642 44.6696C51.6642 39.6988 48.1743 33.6616 43.8692 31.1693C41.7192 29.9275 39.7738 29.8105 38.3652 30.6223L36.0104 31.9811C34.6035 32.7964 33.7314 34.5388 33.7314 37.0225C33.7314 41.9933 37.2214 48.0305 41.5248 50.5227C43.6748 51.7629 45.6201 51.8815 47.0288 51.0697L49.3818 49.7075C50.7922 48.8973 51.6642 47.1533 51.6642 44.6696Z" fill="#BA68C8"/>
<path opacity="0.1" d="M47.0368 51.0693C50.0806 49.312 50.0804 43.6131 47.0364 38.3407C43.9924 33.0682 39.0571 30.2187 36.0132 31.9761C32.9694 33.7335 32.9695 39.4322 36.0136 44.7047C39.0576 49.9771 43.9929 52.8267 47.0368 51.0693Z" fill="black"/>
<path d="M49.3229 46.0246C49.3229 41.0538 45.8331 35.0166 41.5279 32.5243C39.3745 31.2808 37.4257 31.1655 36.0153 31.9825L34.8491 32.655C33.4353 33.4686 32.5615 35.2144 32.5615 37.7015C32.5615 42.6723 36.0514 48.7095 40.3549 51.2018C42.5083 52.4436 44.4571 52.5606 45.8675 51.7453L47.0405 51.0676C48.4492 50.254 49.3229 48.5048 49.3229 46.0246Z" fill="#F0F0F0"/>
<path d="M40.3549 33.1952C44.6549 35.6806 48.1499 41.7247 48.1499 46.6955C48.1499 51.6663 44.66 53.6804 40.3549 51.195C36.0497 48.7096 32.5615 42.6656 32.5615 37.6948C32.5615 32.724 36.0514 30.715 40.3549 33.1952Z" fill="#E0E0E0"/>
<path d="M48.7224 46.7022C48.7224 41.5559 45.0966 35.2762 40.6384 32.7031C39.326 31.9446 38.0584 31.561 36.8681 31.561C36.0544 31.5497 35.2524 31.757 34.5461 32.1613C34.1574 32.3883 32.5853 33.2879 32.1862 33.5201C30.5866 34.4575 29.6338 36.4286 29.6338 39.0568C29.6338 44.203 33.2596 50.4827 37.7178 53.0559C39.0302 53.8144 40.2978 54.1979 41.488 54.1979C42.3073 54.2092 43.1143 53.9988 43.8238 53.5891C44.2056 53.3637 45.7588 52.4762 46.1544 52.2475C47.7643 51.3135 48.7224 49.3389 48.7224 46.7022Z" fill="#455A64"/>
<path d="M41.488 54.1973C40.2995 54.1973 39.0302 53.8137 37.7178 53.0553C33.2612 50.4753 29.6338 44.2024 29.6338 39.0561C29.6338 35.3237 31.5533 32.9141 34.5238 32.9141C35.714 32.9141 36.9816 33.2976 38.294 34.0561C42.7505 36.6361 46.378 42.9089 46.378 48.0552C46.378 51.7859 44.4584 54.1973 41.488 54.1973Z" fill="#37474F"/>
<path d="M39.7463 48.8698C39.0762 48.8496 38.4236 48.6526 37.8543 48.2987C35.6286 47.0139 33.8174 43.8784 33.8174 41.307C33.8174 39.4442 34.7772 38.2402 36.2598 38.2402C36.9266 38.2618 37.5761 38.4581 38.1432 38.8095C40.3689 40.0961 42.1801 43.2317 42.1801 45.8031C42.1887 47.6658 41.2289 48.8698 39.7463 48.8698Z" fill="#263238"/>
<path d="M29.8044 57.6202C29.8044 52.4739 26.1786 46.1942 21.7204 43.6194C20.408 42.8626 19.1404 42.479 17.9518 42.479C17.138 42.4673 16.336 42.6746 15.6298 43.0793C15.2411 43.3063 13.6673 44.2059 13.27 44.4381C11.6687 45.3755 10.7158 47.3466 10.7158 49.973C10.7158 55.1193 14.3416 61.4007 18.7998 63.9738C20.1122 64.7323 21.3798 65.1157 22.5683 65.1157C23.3888 65.1254 24.1966 64.9127 24.9058 64.5002C25.2894 64.2748 26.8425 63.3873 27.2364 63.1586C28.8463 62.2315 29.8044 60.2569 29.8044 57.6202Z" fill="#455A64"/>
<path d="M22.5703 65.1152C21.3818 65.1152 20.1141 64.7317 18.8018 63.9732C14.3435 61.3932 10.7178 55.1187 10.7178 49.9724C10.7178 46.2418 12.6373 43.832 15.6094 43.832C16.798 43.832 18.0656 44.2156 19.378 44.9724C23.8345 47.5524 27.462 53.827 27.462 58.9732C27.4602 62.7039 25.5407 65.1152 22.5703 65.1152Z" fill="#37474F"/>
<path d="M26.8837 58.9729C26.8837 54.0021 23.3937 47.9649 19.0886 45.4726C16.9351 44.2291 14.9864 44.1121 13.5846 44.9291L12.4185 45.6034C11.0063 46.4169 10.1309 48.161 10.1309 50.6481C10.1309 55.6189 13.6207 61.6561 17.9259 64.1484C20.0793 65.3922 22.0263 65.5073 23.4299 64.6939L24.6029 64.0159C26.0116 63.2007 26.8837 61.4566 26.8837 58.9729Z" fill="#F0F0F0"/>
<path d="M17.9171 46.1492C22.2171 48.6346 25.7121 54.6788 25.7121 59.6496C25.7121 64.6204 22.2223 66.6344 17.9171 64.156C13.6119 61.6774 10.1221 55.6264 10.1221 50.6556C10.1221 45.6848 13.6119 43.6638 17.9171 46.1492Z" fill="#E0E0E0"/>
<path d="M25.7127 59.65C25.7127 54.6792 22.2229 48.642 17.9177 46.1498C15.7677 44.9079 13.8224 44.791 12.4137 45.6028L10.0591 46.9564C8.65035 47.7717 7.77832 49.5158 7.77832 51.9978C7.77832 56.9686 11.2682 63.0058 15.5733 65.4982C17.7217 66.7397 19.6669 66.8567 21.0773 66.0452L23.4286 64.688C24.839 63.8795 25.7127 62.1354 25.7127 59.65Z" fill="#BA68C8"/>
<path opacity="0.1" d="M15.5733 47.5022C19.8733 49.9876 23.3667 56.0317 23.3667 61.0025C23.3667 65.9735 19.8785 67.9871 15.5733 65.5021C11.2682 63.0166 7.77832 56.9725 7.77832 52.0017C7.77832 47.0309 11.2682 45.0168 15.5733 47.5022Z" fill="black"/>
<path d="M9.97622 50.3332C9.91259 50.3572 9.84896 50.383 9.78702 50.4122C9.72513 50.4415 9.69073 50.4638 9.64424 50.4914C9.59782 50.5189 9.52733 50.5584 9.47224 50.5946C9.41722 50.6307 9.38113 50.6582 9.33639 50.6926C9.29164 50.727 9.23144 50.7734 9.17984 50.8182L9.05602 50.9334C9.00784 50.9816 8.96142 51.0314 8.91499 51.083C8.86856 51.1346 8.83933 51.1708 8.80319 51.2155C8.76704 51.2602 8.71893 51.329 8.67762 51.3875C8.63636 51.446 8.61399 51.4821 8.58476 51.5302L8.56413 51.5646C8.53142 51.6197 8.50044 51.6748 8.46953 51.7366L8.44373 51.7882C8.41962 51.8347 8.39556 51.8812 8.37319 51.9293C8.35082 51.9774 8.33704 52.0153 8.31984 52.0583C8.30264 52.1013 8.29579 52.1134 8.28544 52.1408L8.25453 52.22C8.23384 52.275 8.21496 52.3318 8.19602 52.392C8.17713 52.4522 8.16504 52.4918 8.15133 52.5416C8.12379 52.6322 8.09973 52.7251 8.07904 52.8202C8.06359 52.8856 8.04982 52.951 8.03779 53.018L8.01716 53.1247C8.01716 53.1642 8.00339 53.2038 7.99822 53.2434C7.98276 53.3414 7.97242 53.4412 7.96213 53.5426C7.96213 53.5908 7.95004 53.6372 7.94662 53.6872C7.94662 53.7044 7.94662 53.7232 7.94662 53.7422C7.93459 53.9056 7.92773 54.0742 7.92773 54.2496C7.93271 54.9499 8.01632 55.6474 8.17713 56.329C8.82039 59.1464 10.6504 62.0532 12.8899 63.7164C13.1527 63.9135 13.426 64.0961 13.7086 64.2634L13.8256 64.327L14.0216 64.4337L14.1713 64.5076L14.333 64.5834C14.388 64.6092 14.4414 64.6315 14.505 64.6538C14.5686 64.676 14.5996 64.6954 14.6478 64.7122L14.8198 64.7762L14.9539 64.8221L15.1259 64.8726L15.2704 64.912L15.4183 64.9482C15.4836 64.9638 15.549 64.9754 15.6144 64.9877L15.7038 65.0045L15.7812 65.0135L16.9284 64.3288C16.1983 64.214 15.4974 63.9587 14.8644 63.5772C11.6704 61.7333 9.08182 57.2527 9.08182 53.5633C9.08182 52.0704 9.50839 50.9386 10.2274 50.2402C10.1895 50.2506 10.15 50.2592 10.1138 50.2712L9.97622 50.3332Z" fill="#263238"/>
<path d="M11.0081 49.0879C10.8298 49.1504 10.6572 49.2281 10.4921 49.3201L9.32422 49.9944C9.83899 49.7059 10.418 49.5515 11.0081 49.5454V49.0879Z" fill="#37474F"/>
<path d="M15.676 64.997L15.5866 64.9795C15.5212 64.9679 15.4576 64.9556 15.3904 64.9401C15.3234 64.9246 15.2924 64.9162 15.2426 64.9039L15.1445 64.88L15.098 64.8644L14.926 64.8146L14.7884 64.7681L14.6164 64.7047C14.5683 64.6873 14.5218 64.6666 14.4737 64.6459L14.3017 64.5771L14.14 64.4997L13.9904 64.4258L13.7908 64.3174L13.679 64.2572C13.4062 64.0958 13.1422 63.9201 12.8878 63.7309C12.1597 63.1884 11.4996 62.5601 10.9219 61.8595C10.4251 61.2581 9.97974 60.616 9.59061 59.94C8.94128 58.8283 8.458 57.6277 8.15616 56.3762C8.15616 56.3573 8.15616 56.3383 8.14407 56.3177C7.99004 55.637 7.91219 54.9413 7.91187 54.2434C7.91187 54.0817 7.91187 53.9252 7.92907 53.7704C7.92907 53.748 7.92907 53.7239 7.92907 53.7016C7.92829 53.6861 7.92829 53.6706 7.92907 53.6551C7.93941 53.5261 7.95318 53.4006 7.97207 53.2767L7.98241 53.1976C7.98241 53.1563 7.99787 53.1168 8.00478 53.0772C8.01164 53.0377 8.02716 52.9637 8.03744 52.9052C8.04778 52.8467 8.06156 52.7848 8.07701 52.7332C8.09247 52.6816 8.11141 52.6077 8.12861 52.5457L8.14924 52.4769C8.15001 52.4678 8.15001 52.4586 8.14924 52.4494C8.16644 52.3978 8.18196 52.3479 8.19916 52.2981C8.21636 52.2482 8.24384 52.1794 8.26621 52.1261C8.28858 52.0727 8.32641 51.9764 8.36081 51.9059C8.39521 51.8354 8.41067 51.8061 8.43647 51.7563L8.46744 51.6961C8.49498 51.6462 8.52421 51.5946 8.55344 51.5464C8.58267 51.4983 8.61021 51.4587 8.63944 51.4157L8.67727 51.3572L8.77187 51.2557L8.82346 51.1904C8.84066 51.1715 8.85444 51.1508 8.87164 51.1319C8.88884 51.113 8.93358 51.0597 8.96624 51.0235L8.99721 50.9909L9.11936 50.8687C9.13824 50.8515 9.16061 50.8378 9.17956 50.8206C9.23116 50.7759 9.28276 50.7346 9.33604 50.695C9.38938 50.6555 9.42547 50.6279 9.47196 50.597C9.51838 50.566 9.58544 50.5265 9.64396 50.4938C9.70241 50.4611 9.73856 50.4387 9.78667 50.4147C9.83484 50.3906 9.91224 50.3596 9.97587 50.3355L10.1272 50.2753L10.2442 50.2409L10.3199 50.2237C10.3715 50.21 10.4231 50.1962 10.4764 50.1859C10.5298 50.1756 10.626 50.1618 10.7034 50.1532C10.755 50.1532 10.805 50.1377 10.8582 50.1326C10.9116 50.1274 10.9512 50.1326 10.9993 50.1326V49.5547C10.4086 49.5628 9.82954 49.7196 9.31541 50.0105C9.24144 50.0517 9.17096 50.0982 9.10216 50.1446L9.06601 50.1704C8.8644 50.3136 8.67875 50.4779 8.51218 50.6606L8.45716 50.7225C8.40724 50.7793 8.35907 50.8378 8.31096 50.8945C8.29718 50.9135 8.28341 50.9341 8.26796 50.953C8.19056 51.0597 8.11658 51.1715 8.04778 51.297L7.97381 51.426C7.94284 51.4828 7.91361 51.5413 7.88438 51.598C7.85516 51.6548 7.82936 51.7167 7.80181 51.7786C7.77427 51.8405 7.75021 51.8973 7.72616 51.9609C7.68827 52.0573 7.65387 52.1553 7.62121 52.2568C7.60576 52.3049 7.59198 52.3548 7.57821 52.4047C7.55416 52.4924 7.53004 52.5767 7.50941 52.6696L7.47844 52.802C7.45096 52.9327 7.42684 53.0669 7.40796 53.2045C7.40796 53.2372 7.40796 53.2733 7.39587 53.306C7.38041 53.4212 7.36838 53.5382 7.35978 53.65L7.34944 53.779C7.34084 53.9321 7.33398 54.0869 7.33398 54.2451C7.34614 55.2635 7.50728 56.2747 7.81216 57.2465C7.96948 57.7615 8.15674 58.2669 8.37284 58.7601C8.48179 59.0089 8.59644 59.256 8.71684 59.5014C9.08825 60.2362 9.52032 60.9387 10.0086 61.6015C10.977 62.9173 12.1448 64.0336 13.4004 64.7597C13.8997 65.0545 14.4342 65.286 14.9914 65.4477L15.7414 65.0157L15.676 64.997Z" fill="#455A64"/>
<path d="M20.8483 59.5476C20.8483 56.185 18.4867 52.0931 15.5731 50.4109C14.1111 49.5681 12.7901 49.4907 11.8355 50.0481L9.30191 51.5049C8.34213 52.0535 7.75391 53.2387 7.75391 54.9243C7.75391 58.2885 10.1155 62.3787 13.0291 64.0609C14.4877 64.9036 15.8087 64.9825 16.7633 64.4273L19.3106 62.9618C20.2583 62.4097 20.8483 61.2315 20.8483 59.5476Z" fill="#BA68C8"/>
<path opacity="0.3" d="M20.8483 59.5476C20.8483 56.185 18.4867 52.0931 15.5731 50.4109C14.1111 49.5681 12.7901 49.4907 11.8355 50.0481L9.30191 51.5049C8.34213 52.0535 7.75391 53.2387 7.75391 54.9243C7.75391 58.2885 10.1155 62.3787 13.0291 64.0609C14.4877 64.9036 15.8087 64.9825 16.7633 64.4273L19.3106 62.9618C20.2583 62.4097 20.8483 61.2315 20.8483 59.5476Z" fill="black"/>
<path d="M16.7527 64.43C18.8126 63.2407 18.8126 59.3842 16.7527 55.8163C14.6928 52.2485 11.353 50.3202 9.29302 51.5095C7.2331 52.6988 7.23303 56.5553 9.29296 60.1232C11.3529 63.6911 14.6927 65.619 16.7527 64.43Z" fill="#BA68C8"/>
<path d="M15.7632 63.3666C17.369 62.4437 17.3747 59.4405 15.776 56.6588C14.1772 53.877 11.5795 52.37 9.97369 53.2929C8.36795 54.2157 8.36219 57.219 9.96095 60.0007C11.5597 62.7825 14.1574 64.2895 15.7632 63.3666Z" fill="#263238"/>
<path d="M15.0573 55.7842L12.6355 58.2025L9.74414 53.1922C10.4821 52.7622 11.5071 52.8241 12.6355 53.476C13.5962 54.0663 14.4215 54.8529 15.0573 55.7842Z" fill="#455A64"/>
<path d="M16.7301 60.5702C16.7301 61.874 16.2709 62.7924 15.5261 63.2156L12.6348 58.2034L15.0565 55.7852C16.0696 57.2316 16.7301 58.9964 16.7301 60.5702Z" fill="#37474F"/>
<path d="M15.5299 63.2152C14.792 63.6401 13.76 63.585 12.6351 62.9331C11.6727 62.3448 10.848 61.5564 10.2168 60.6215L12.6351 58.2031L15.5299 63.2152Z" fill="#455A64"/>
<path d="M12.6348 58.2037L10.2165 60.622C9.2 59.1772 8.54297 57.4074 8.54297 55.8438C8.54297 54.5366 9.0022 53.6216 9.74697 53.1934L12.6348 58.2037Z" fill="#37474F"/>
<path d="M15.9724 65.0324H15.9965C16.086 65.0324 16.1685 65.0427 16.2614 65.0427H16.3044C16.4334 65.0427 16.559 65.0343 16.6828 65.0201H16.6966C16.8019 65.0078 16.9065 64.9884 17.0096 64.9639C17.0526 64.9535 17.0973 64.9445 17.1403 64.9328C17.2212 64.9102 17.302 64.883 17.3794 64.8533C17.4568 64.8242 17.4998 64.8054 17.5514 64.7796L17.634 64.7382C17.8873 64.6114 18.1194 64.446 18.322 64.248C17.8639 64.3737 17.3846 64.4018 16.915 64.3306L15.7402 65.0065C15.8245 65.0169 15.9002 65.0272 15.9724 65.0324Z" fill="#263238"/>
<path d="M15.1619 50.4908C15.1921 50.9417 15.3867 51.3658 15.7088 51.6828C18.22 53.991 20.0587 57.7424 20.0587 60.9174C20.0587 63.2308 19.0886 64.8733 17.5028 65.4255C17.7056 65.3609 17.9001 65.2723 18.0824 65.1624L19.2503 64.4882C20.4922 63.7726 21.2318 62.2522 21.2318 60.2415C21.2318 57.0664 19.3931 53.315 16.8802 51.0068C16.5609 50.6886 16.3688 50.2647 16.3401 49.8148V45.1348L15.1688 45.8124L14.5908 45.4788L15.1688 45.8124L15.1619 50.4908Z" fill="#37474F"/>
<path d="M15.7088 51.6825C15.3868 51.3656 15.1921 50.9415 15.1619 50.4906V45.8122L14.584 45.4785V50.7709C14.5855 50.8409 14.5936 50.9106 14.608 50.9791L14.6184 51.0324C14.6348 51.106 14.6561 51.1783 14.682 51.2491C14.7236 51.3583 14.7749 51.4637 14.8351 51.5639C14.8506 51.5897 14.866 51.612 14.8832 51.6361C14.928 51.7069 14.978 51.7742 15.0329 51.8373C15.068 51.8762 15.1054 51.9129 15.1447 51.9474C15.284 52.0678 15.4199 52.1951 15.554 52.3258L15.6607 52.4307C15.7776 52.5477 15.8929 52.6664 16.0047 52.7885L16.0563 52.8435C16.1836 52.9829 16.3074 53.1256 16.4296 53.2718C16.4622 53.3096 16.4932 53.3492 16.5242 53.3871C16.6256 53.5109 16.7254 53.6364 16.8217 53.7654C16.8458 53.7964 16.8698 53.8256 16.8922 53.8566C17.0074 54.0114 17.1176 54.1679 17.2362 54.3279L17.3119 54.4431C17.4014 54.5756 17.4839 54.7097 17.5716 54.8456L17.6438 54.9643C17.7454 55.1363 17.8416 55.298 17.9362 55.4665L17.9896 55.5697C18.067 55.7125 18.1426 55.857 18.2149 56.0032L18.282 56.1373C18.3662 56.3093 18.454 56.4813 18.5228 56.6654C18.5331 56.6877 18.5434 56.7118 18.552 56.7342C18.6196 56.8924 18.6833 57.0506 18.743 57.2089C18.7618 57.257 18.7808 57.3052 18.798 57.3534C18.8634 57.534 18.9287 57.7146 18.9854 57.8969C19.0422 58.0792 19.0938 58.2615 19.1437 58.4439C19.154 58.4817 19.1644 58.5212 19.173 58.5608C19.22 58.7374 19.2612 58.9146 19.2968 59.0923L19.3122 59.1817C19.345 59.3434 19.3708 59.5051 19.3948 59.6668C19.3948 59.696 19.3948 59.7252 19.4068 59.7545C19.431 59.9265 19.4482 60.0985 19.4619 60.2705C19.4619 60.3083 19.4619 60.3462 19.4619 60.384C19.4722 60.556 19.4808 60.7366 19.4808 60.9103C19.4808 61.9423 19.2762 62.8109 18.9098 63.4766C18.8312 63.6206 18.7421 63.7586 18.6432 63.8894C18.595 63.953 18.5452 64.0149 18.4936 64.0734C18.442 64.1319 18.3886 64.1869 18.3336 64.2454C18.131 64.4435 17.8989 64.6088 17.6456 64.7353L17.563 64.7767C17.5046 64.8026 17.446 64.8285 17.391 64.8511C17.336 64.8731 17.2448 64.9041 17.1708 64.9248H17.152C17.109 64.9371 17.0642 64.9455 17.0212 64.9558L16.9438 64.9746C16.8664 64.9901 16.7873 65.0037 16.7082 65.0127H16.6841C16.5585 65.027 16.4321 65.0347 16.3057 65.0347H16.2076C16.1388 65.0347 16.0684 65.0347 15.9978 65.0231H15.972C15.8998 65.0231 15.8258 65.0076 15.7536 64.9972L15.0036 65.4285C15.4197 65.5488 15.8503 65.6115 16.2834 65.6147C16.3418 65.6147 16.3986 65.6147 16.4554 65.6147C16.5121 65.6147 16.6118 65.6147 16.6841 65.6025L16.8166 65.5837C16.9008 65.5714 16.9886 65.5598 17.0608 65.5443L17.1812 65.5164L17.2294 65.5029C17.3033 65.4841 17.3772 65.4647 17.4495 65.4427L17.5011 65.4253C19.087 64.8802 20.057 63.2306 20.057 60.9172C20.0588 57.7421 18.22 53.9908 15.7088 51.6825Z" fill="#455A64"/>
<path d="M12.5215 50.2364L12.5559 50.2244L12.5955 50.2038L13.7599 49.5364C13.8354 49.4883 13.8964 49.4207 13.9367 49.3408C13.977 49.2609 13.9949 49.1716 13.9887 49.0823V43.7812L12.8174 44.459V49.7496C12.826 49.8517 12.8019 49.9538 12.7488 50.0413C12.6956 50.1288 12.616 50.1971 12.5215 50.2364Z" fill="#37474F"/>
<path d="M11.1186 49.5356C11.4002 49.5358 11.6813 49.5623 11.958 49.6147C11.992 49.6236 12.0277 49.6243 12.0621 49.617C12.0966 49.6096 12.1288 49.5943 12.1562 49.5722C12.1836 49.5501 12.2055 49.5219 12.2201 49.4899C12.2346 49.4578 12.2415 49.4228 12.2401 49.3876V48.8613C11.8192 48.8644 11.402 48.9401 11.0068 49.0849V49.5424C11.0447 49.5356 11.0808 49.5356 11.1186 49.5356Z" fill="#37474F"/>
<path d="M11.2656 50.118C11.4015 50.118 11.5408 50.1369 11.6819 50.1576C11.8197 50.178 11.9563 50.2055 12.0912 50.2401C12.0992 50.2391 12.1073 50.2391 12.1153 50.2401H12.1308C12.1753 50.2516 12.2208 50.2591 12.2667 50.2625H12.2787C12.3159 50.2651 12.3533 50.2651 12.3905 50.2625H12.4112C12.4464 50.2576 12.481 50.2489 12.5144 50.2367C12.6089 50.1974 12.6884 50.129 12.7416 50.0415C12.7948 49.9541 12.8188 49.8519 12.8102 49.7499V44.4592L12.2323 44.1152V49.3836C12.2337 49.4188 12.2269 49.4538 12.2123 49.4858C12.1977 49.5178 12.1759 49.546 12.1484 49.5682C12.121 49.5902 12.0888 49.6055 12.0544 49.613C12.02 49.6203 11.9843 49.6195 11.9502 49.6106C11.6735 49.5583 11.3925 49.5318 11.1108 49.5315C11.073 49.5315 11.0369 49.5315 10.999 49.5315V50.1094H11.1212C11.1796 50.1197 11.2192 50.1163 11.2656 50.118Z" fill="#455A64"/>
<path d="M13.1835 41.2283C12.9702 41.1061 12.6778 41.1233 12.3545 41.3108C12.0118 41.5326 11.7267 41.8325 11.5224 42.186C11.3182 42.5394 11.2008 42.9362 11.1797 43.3439C11.1797 43.7205 11.3122 43.9854 11.5237 44.1058L16.209 46.8097L17.8602 43.9355L13.1835 41.2283Z" fill="#BA68C8"/>
<path opacity="0.3" d="M13.1835 41.2283C12.9702 41.1061 12.6778 41.1233 12.3545 41.3108C12.0118 41.5326 11.7267 41.8325 11.5224 42.186C11.3182 42.5394 11.2008 42.9362 11.1797 43.3439C11.1797 43.7205 11.3122 43.9854 11.5237 44.1058L16.209 46.8097L17.8602 43.9355L13.1835 41.2283Z" fill="black"/>
<path opacity="0.3" d="M11.3225 42.6309C11.2336 42.8587 11.1852 43.1002 11.1797 43.3447C11.1797 43.7213 11.3122 43.9862 11.5237 44.1066L16.209 46.8105L16.7921 45.7957L11.3225 42.6309Z" fill="black"/>
<path d="M15.8701 46.0476C15.8915 45.6407 16.0089 45.2447 16.2128 44.8919C16.4168 44.5391 16.7013 44.2396 17.0432 44.018C17.3631 43.8322 17.6538 43.8133 17.8653 43.932C18.0769 44.0507 18.2093 44.3173 18.2093 44.694C18.1873 45.1007 18.0698 45.4966 17.8664 45.8495C17.6629 46.2025 17.3791 46.5025 17.038 46.7253C16.7129 46.911 16.4205 46.93 16.209 46.8061C15.9974 46.6823 15.8701 46.4226 15.8701 46.0476Z" fill="#BA68C8"/>
<path opacity="0.2" d="M15.8701 46.0476C15.8915 45.6407 16.0089 45.2447 16.2128 44.8919C16.4168 44.5391 16.7013 44.2396 17.0432 44.018C17.3631 43.8322 17.6538 43.8133 17.8653 43.932C18.0769 44.0507 18.2093 44.3173 18.2093 44.694C18.1873 45.1007 18.0698 45.4966 17.8664 45.8495C17.6629 46.2025 17.3791 46.5025 17.038 46.7253C16.7129 46.911 16.4205 46.93 16.209 46.8061C15.9974 46.6823 15.8701 46.4226 15.8701 46.0476Z" fill="black"/>
<path d="M16.3777 45.7524C16.3902 45.5215 16.457 45.2968 16.5727 45.0966C16.6884 44.8963 16.8496 44.7262 17.0433 44.6C17.1069 44.5435 17.1867 44.5085 17.2713 44.5001C17.3559 44.4916 17.441 44.51 17.5146 44.5526C17.5881 44.5953 17.6463 44.6601 17.6809 44.7378C17.7155 44.8154 17.7247 44.9021 17.7073 44.9852C17.6947 45.2157 17.628 45.4399 17.5126 45.6399C17.3973 45.8397 17.2365 46.0097 17.0433 46.1359C16.9796 46.1917 16.9 46.2261 16.8158 46.2344C16.7315 46.2427 16.6468 46.2244 16.5734 46.1822C16.5 46.1399 16.4417 46.0757 16.4066 45.9987C16.3716 45.9216 16.3614 45.8355 16.3777 45.7524Z" fill="#37474F"/>
<path d="M17.3963 44.8131C17.3996 44.7095 17.3753 44.6068 17.3258 44.5156C17.226 44.5214 17.1291 44.5515 17.0437 44.6033C16.85 44.7295 16.6887 44.8997 16.5731 45.0999C16.4574 45.3002 16.3906 45.5248 16.3781 45.7557C16.3756 45.8593 16.4 45.9618 16.4486 46.0533C16.5489 46.0476 16.6463 46.0175 16.7324 45.9655C16.9258 45.8391 17.0867 45.6689 17.2021 45.4687C17.3174 45.2685 17.384 45.0439 17.3963 44.8131Z" fill="#263238"/>
<path d="M43.6603 23.6326C43.4487 23.5104 43.1546 23.5276 42.8312 23.7151C42.4899 23.9374 42.2058 24.237 42.002 24.5896C41.7982 24.9423 41.6804 25.338 41.6582 25.7447C41.6582 26.1214 41.7924 26.3846 42.0022 26.5067L46.6858 29.2105L48.3387 26.3364L43.6603 23.6326Z" fill="#BA68C8"/>
<path opacity="0.3" d="M43.6603 23.6326C43.4487 23.5104 43.1546 23.5276 42.8312 23.7151C42.4899 23.9374 42.2058 24.237 42.002 24.5896C41.7982 24.9423 41.6804 25.338 41.6582 25.7447C41.6582 26.1214 41.7924 26.3846 42.0022 26.5067L46.6858 29.2105L48.3387 26.3364L43.6603 23.6326Z" fill="black"/>
<path opacity="0.3" d="M41.7963 25.0332C41.7092 25.2609 41.6615 25.5017 41.6553 25.7453C41.6553 26.122 41.7894 26.3851 41.9993 26.5073L46.6828 29.2111L47.2676 28.1946L41.7963 25.0332Z" fill="black"/>
<path d="M46.3486 28.452C46.3706 28.0452 46.4882 27.6494 46.6917 27.2964C46.8952 26.9435 47.1789 26.6435 47.52 26.4207C47.8416 26.2366 48.1323 26.2178 48.3438 26.3364C48.5554 26.4551 48.6878 26.7217 48.6878 27.0984C48.6665 27.5053 48.549 27.9013 48.3451 28.2541C48.1412 28.6069 47.8567 28.9063 47.5148 29.128C47.1914 29.3154 46.899 29.3326 46.6858 29.2106C46.4725 29.0884 46.3486 28.8252 46.3486 28.452Z" fill="#BA68C8"/>
<path opacity="0.2" d="M46.3486 28.452C46.3706 28.0452 46.4882 27.6494 46.6917 27.2964C46.8952 26.9435 47.1789 26.6435 47.52 26.4207C47.8416 26.2366 48.1323 26.2178 48.3438 26.3364C48.5554 26.4551 48.6878 26.7217 48.6878 27.0984C48.6665 27.5053 48.549 27.9013 48.3451 28.2541C48.1412 28.6069 47.8567 28.9063 47.5148 29.128C47.1914 29.3154 46.899 29.3326 46.6858 29.2106C46.4725 29.0884 46.3486 28.8252 46.3486 28.452Z" fill="black"/>
<path d="M46.8558 28.1592C46.8682 27.9285 46.9347 27.7039 47.0501 27.5036C47.1654 27.3035 47.3263 27.1332 47.5198 27.0068C47.5868 26.9587 47.6652 26.9289 47.7472 26.9205C47.8293 26.912 47.9122 26.9252 47.9876 26.9586C48.0563 27.0061 48.111 27.0713 48.1458 27.1473C48.1807 27.2233 48.1943 27.3073 48.1854 27.3904C48.1731 27.6213 48.1064 27.8461 47.9908 28.0464C47.8751 28.2467 47.7137 28.4167 47.5198 28.5428C47.4563 28.599 47.3767 28.6337 47.2924 28.6423C47.208 28.6507 47.1231 28.6325 47.0497 28.5901C46.9762 28.5477 46.918 28.4833 46.8832 28.4059C46.8484 28.3286 46.8389 28.2423 46.8558 28.1592Z" fill="#37474F"/>
<path d="M47.8746 27.2174C47.8771 27.1138 47.8528 27.0114 47.8041 26.9199C47.7038 26.9256 47.6064 26.9557 47.5203 27.0076C47.3267 27.134 47.1655 27.3041 47.0498 27.5043C46.9342 27.7045 46.8674 27.9292 46.8547 28.16C46.8519 28.2639 46.8768 28.3665 46.9269 28.4576C47.0267 28.4518 47.1236 28.4217 47.209 28.3698C47.4026 28.2435 47.5638 28.0734 47.6795 27.8732C47.7951 27.673 47.8619 27.4483 47.8746 27.2174Z" fill="#263238"/>
<path d="M47.2679 13.8631L42.2111 10.9391C41.8872 10.3222 41.4986 9.74152 41.0518 9.20703C43.7659 9.68003 45.9125 11.3243 47.2679 13.8631Z" fill="#BA68C8"/>
<path opacity="0.2" d="M47.2679 13.8631L42.2111 10.9391C41.8872 10.3222 41.4986 9.74152 41.0518 9.20703C43.7659 9.68003 45.9125 11.3243 47.2679 13.8631Z" fill="black"/>
<path d="M46.3319 26.4501C46.5892 25.0826 46.7221 23.6947 46.7292 22.3032C46.7292 12.8965 40.1262 9.08332 31.9802 13.7875C23.8343 18.4917 17.2295 29.928 17.2295 39.3346C17.2215 40.5762 17.3554 41.8146 17.6286 43.0258L15.7262 44.1248C15.4894 42.8985 15.3742 41.6518 15.3822 40.4028C15.3822 29.8162 22.8161 16.9402 31.9854 11.6478C41.1547 6.35537 48.5868 10.645 48.5868 21.2334C48.5839 22.6164 48.4688 23.9969 48.2428 25.3614L46.3508 26.457" fill="#37474F"/>
<path d="M46.3332 26.4499C46.5891 25.0816 46.7215 23.6932 46.7288 22.3012C46.7288 16.0972 43.8564 12.3252 39.5615 11.8281C40.9049 13.6204 41.6754 16.178 41.6754 19.3961C41.6672 20.784 41.5348 22.1684 41.2798 23.5327L46.3332 26.4499Z" fill="#263238"/>
<path d="M43.4184 10.3191C40.4394 8.77115 36.4129 9.09109 31.9804 11.6504C22.8094 16.9394 15.3773 29.8136 15.3773 40.4037C15.3691 41.6515 15.4844 42.8971 15.7213 44.1223L10.6765 41.2086C10.4345 39.9857 10.3153 38.7418 10.3205 37.4951C10.3205 26.9068 17.7526 14.0326 26.9236 8.73849C31.504 6.09311 35.6492 5.84371 38.654 7.57575C39.4246 8.0126 42.2609 9.65177 43.4184 10.3191Z" fill="#455A64"/>
<path d="M13.1445 39.7682C13.0038 39.7632 12.8669 39.7217 12.7472 39.6478C12.5011 39.4871 12.296 39.271 12.1485 39.0168C12.0009 38.7627 11.9149 38.4774 11.8975 38.1841C11.8975 37.7919 12.1004 37.5391 12.4135 37.5391C12.554 37.5434 12.6909 37.5843 12.8108 37.6577C13.0574 37.8199 13.2627 38.0375 13.4103 38.2931C13.5578 38.5488 13.6435 38.8354 13.6605 39.1301C13.6588 39.5136 13.4558 39.7682 13.1445 39.7682Z" fill="#263238"/>
<path d="M44.1679 9.30347C42.6993 8.5157 41.0544 8.11441 39.3881 8.13736C36.8545 8.13736 34.1524 8.95604 31.3539 10.5694C24.8781 14.307 19.2279 21.715 16.2867 29.5256L11.2334 26.6016C14.1746 18.791 19.8334 11.383 26.3006 7.64542C29.099 6.03206 31.8046 5.2099 34.3347 5.2099C36.0646 5.18625 37.7697 5.62189 39.2763 6.47239C40.0761 6.94365 43.0981 8.68427 44.1679 9.30347Z" fill="#BA68C8"/>
<path opacity="0.6" d="M44.1679 9.30347C42.6993 8.5157 41.0544 8.11441 39.3881 8.13736C36.8545 8.13736 34.1524 8.95604 31.3539 10.5694C24.8781 14.307 19.2279 21.715 16.2867 29.5256L11.2334 26.6016C14.1746 18.791 19.8334 11.383 26.3006 7.64542C29.099 6.03206 31.8046 5.2099 34.3347 5.2099C36.0646 5.18625 37.7697 5.62189 39.2763 6.47239C40.0761 6.94365 43.0981 8.68427 44.1679 9.30347Z" fill="#B8C1EC"/>
<path d="M47.2661 13.8608C45.6458 10.8354 42.8955 9.06895 39.3885 9.06895C37.02 9.06895 34.4727 9.84463 31.8205 11.3772C25.4737 15.0408 19.9404 22.3301 17.0955 29.9927L16.2871 29.5249C19.2283 21.7144 24.8785 14.3063 31.3543 10.5688C34.1527 8.9554 36.8583 8.13672 39.3885 8.13672C43.0795 8.13672 46.0121 9.88077 47.8165 12.9097L47.2661 13.8608Z" fill="#BA68C8"/>
<path d="M68.9807 11.0625L68.1381 13.8403C68.0689 13.7884 67.992 13.7483 67.9092 13.7216C67.7657 13.6781 67.6118 13.6781 67.4682 13.7219C67.324 13.7656 67.1966 13.851 67.1009 13.9674C67.0059 14.0836 66.947 14.2256 66.9322 14.3752C66.9179 14.5249 66.9477 14.6755 67.0188 14.8081C67.0899 14.9406 67.1986 15.0492 67.3311 15.12C67.4637 15.1908 67.6144 15.2206 67.7644 15.2058C67.9137 15.191 68.056 15.132 68.1717 15.0365C68.2881 14.9411 68.3735 14.8133 68.4168 14.6693L69.1733 12.1805L71.8794 12.2803L71.1345 14.7485C71.0653 14.6958 70.9884 14.6557 70.9056 14.6298C70.7614 14.5862 70.6082 14.5863 70.464 14.63C70.3204 14.6738 70.1924 14.7592 70.0974 14.8755C70.0023 14.9918 69.9435 15.1337 69.9286 15.2834C69.9144 15.433 69.9441 15.5837 70.0152 15.7163C70.0864 15.8488 70.195 15.9574 70.3276 16.0281C70.4601 16.0989 70.6108 16.1288 70.7601 16.1139C70.9102 16.0991 71.0518 16.0402 71.1682 15.9447C71.2845 15.8492 71.3693 15.7214 71.4132 15.5775L72.6567 11.4495L68.9807 11.0625Z" fill="#BA68C8"/>
<path d="M66.9475 53.625L66.1049 56.4028C66.0364 56.3502 65.9588 56.31 65.876 56.2841C65.7325 56.2406 65.5786 56.2406 65.435 56.2844C65.2908 56.3281 65.1634 56.4135 65.0677 56.5299C64.9727 56.6461 64.9138 56.7881 64.899 56.9377C64.8847 57.0874 64.9145 57.238 64.9856 57.3706C65.0567 57.5031 65.1654 57.6117 65.2979 57.6825C65.4305 57.7533 65.5812 57.7831 65.7312 57.7683C65.8805 57.7535 66.0221 57.6945 66.1385 57.599C66.2549 57.5036 66.3403 57.3758 66.3836 57.2318L67.1401 54.743L69.8456 54.8428L69.1013 57.311C69.0321 57.2583 68.9552 57.2182 68.8724 57.1923C68.7282 57.1487 68.575 57.1488 68.4308 57.1926C68.2872 57.2363 68.1592 57.3217 68.0642 57.438C67.9691 57.5543 67.9103 57.6962 67.8954 57.8459C67.8805 57.9955 67.9109 58.1462 67.982 58.2788C68.0532 58.4113 68.1618 58.5199 68.2944 58.5906C68.4269 58.6614 68.5776 58.6913 68.7269 58.6764C68.877 58.6616 69.0186 58.6027 69.135 58.5072C69.2507 58.4117 69.3361 58.2839 69.38 58.14L70.6215 54.012L66.9475 53.625Z" fill="#BA68C8"/>
<path d="M61.5966 20.9133C61.7667 20.8301 61.9525 20.7837 62.1418 20.7774C62.3951 20.7724 62.6479 20.8014 62.8935 20.8634C63.219 20.953 63.5526 21.0106 63.8893 21.0354C64.0582 21.0469 64.2277 21.0242 64.3876 20.9687C64.5475 20.9131 64.6943 20.8259 64.8197 20.7121C64.6227 20.7305 64.424 20.704 64.2385 20.6347C63.793 20.4627 63.4353 20.0069 63.0345 19.7523C62.4377 19.3756 61.8477 19.4083 61.1219 19.5906C61.1219 20.2081 61.1098 20.829 61.1029 21.4482L61.0875 22.9051C61.0875 22.9515 61.0651 23.5673 61.0651 23.5673C60.8967 23.4829 60.7116 23.4371 60.5233 23.4331C60.3171 23.4311 60.1149 23.4902 59.9424 23.6031C59.7698 23.716 59.6346 23.8776 59.5539 24.0674C59.4731 24.2571 59.4505 24.4666 59.4889 24.6692C59.5272 24.8719 59.6248 25.0585 59.7693 25.2056C59.9138 25.3528 60.0987 25.4538 60.3006 25.4959C60.5025 25.5378 60.7123 25.5191 60.9035 25.4418C61.0947 25.3645 61.2587 25.2323 61.3747 25.0618C61.4907 24.8913 61.5536 24.6902 61.5553 24.484L61.5966 20.9133Z" fill="#BA68C8"/>
<path d="M78.4325 46.9773C78.6193 46.9441 78.8107 46.9512 78.995 46.9979C79.2394 47.0639 79.4735 47.1611 79.6934 47.2869C79.9817 47.463 80.2863 47.611 80.6031 47.7289C80.7622 47.7864 80.9316 47.8111 81.1004 47.8017C81.2698 47.7922 81.4353 47.7488 81.5867 47.6739C81.392 47.6375 81.2084 47.5576 81.0487 47.44C80.6685 47.1562 80.4518 46.6144 80.1369 46.2583C79.6694 45.7303 79.0946 45.5961 78.3445 45.5703C78.1725 46.1655 77.9902 46.7571 77.813 47.3505L77.3953 48.7472L77.189 49.375C77.0506 49.2476 76.8857 49.153 76.7053 49.0981C76.5081 49.0381 76.2973 49.0381 76.1001 49.0979C75.9029 49.1577 75.7277 49.2748 75.597 49.4342C75.4658 49.5936 75.3856 49.7883 75.3656 49.9935C75.3449 50.1987 75.3862 50.4053 75.4839 50.5872C75.5809 50.769 75.7302 50.9178 75.9119 51.015C76.0936 51.1121 76.3006 51.153 76.5055 51.1326C76.7112 51.1122 76.9058 51.0314 77.0649 50.9004C77.2239 50.7694 77.341 50.5941 77.4005 50.3967L78.4325 46.9773Z" fill="#BA68C8"/>
<path d="M53.7927 9.87915C53.8736 9.69034 53.9938 9.52086 54.1453 9.38209C54.3496 9.19897 54.5775 9.04391 54.8229 8.92112C55.1546 8.76315 55.4702 8.57369 55.7655 8.35527C55.9124 8.24541 56.0355 8.1069 56.1275 7.94816C56.2194 7.78941 56.2782 7.61373 56.3004 7.43164C56.151 7.58515 55.9687 7.70277 55.7672 7.77564C55.2839 7.94764 54.663 7.82549 54.1539 7.89947C53.3953 8.01127 52.9309 8.45329 52.4648 9.11892C52.9034 9.63492 53.3248 10.1509 53.7634 10.6669L54.7834 11.8709C54.8161 11.9087 55.2323 12.4317 55.2323 12.4317C55.035 12.4836 54.8517 12.5788 54.6957 12.7103C54.5246 12.8547 54.4002 13.0466 54.3382 13.2617C54.2763 13.4769 54.2795 13.7055 54.3475 13.9188C54.4155 14.1321 54.5452 14.3204 54.7202 14.46C54.8953 14.5996 55.1078 14.6841 55.3309 14.7028C55.554 14.7216 55.7776 14.6738 55.9735 14.5654C56.1694 14.4571 56.3288 14.2931 56.4314 14.0942C56.5341 13.8952 56.5755 13.6703 56.5504 13.4479C56.5252 13.2254 56.4346 13.0154 56.2901 12.8445L53.7927 9.87915Z" fill="#BA68C8"/>
<path d="M68.9719 26.3978L64.4636 29.0019C64.4211 29.0292 64.3857 29.0663 64.3603 29.1099C64.3349 29.1536 64.3202 29.2026 64.3174 29.253V34.4543C64.3199 34.5046 64.3345 34.5535 64.3599 34.5969C64.3854 34.6403 64.421 34.677 64.4636 34.7037L64.9796 35.0012C65.0243 35.0238 65.0741 35.0355 65.1238 35.0355C65.1743 35.0355 65.2234 35.0238 65.2687 35.0012L69.7782 32.3954C69.8202 32.3682 69.8551 32.3314 69.8804 32.288C69.9056 32.2447 69.9198 32.1961 69.923 32.146V26.9362C69.9204 26.8859 69.9056 26.837 69.8804 26.7936C69.8545 26.7502 69.8196 26.7136 69.7769 26.6868L69.2609 26.3961C69.2156 26.3742 69.1658 26.363 69.1161 26.3633C69.0656 26.3635 69.0165 26.3754 68.9719 26.3978Z" fill="#BA68C8"/>
<path d="M65.1328 34.9153V29.7071C65.1354 29.6568 65.1496 29.608 65.1748 29.5644C65.2001 29.5207 65.235 29.4836 65.277 29.456L69.7865 26.8519C69.866 26.8054 69.9314 26.8433 69.9314 26.9362V32.1461C69.9288 32.196 69.9139 32.2447 69.8887 32.288C69.8641 32.3314 69.8285 32.3682 69.7865 32.3955L65.277 35.0013C65.1981 35.046 65.1328 35.0099 65.1328 34.9153Z" fill="#BA68C8"/>
<path d="M65.1328 34.9153V29.7071C65.1354 29.6568 65.1496 29.608 65.1748 29.5644C65.2001 29.5207 65.235 29.4836 65.277 29.456L69.7865 26.8519C69.866 26.8054 69.9314 26.8433 69.9314 26.9362V32.1461C69.9288 32.196 69.9139 32.2447 69.8887 32.288C69.8641 32.3314 69.8285 32.3682 69.7865 32.3955L65.277 35.0013C65.1981 35.046 65.1328 35.0099 65.1328 34.9153Z" fill="#BA68C8"/>
<path opacity="0.2" d="M65.277 35.0016C65.2317 35.0229 65.182 35.0338 65.1315 35.0338C65.0817 35.0338 65.0319 35.0229 64.9867 35.0016L64.4704 34.7024C64.4278 34.6756 64.3922 34.639 64.3668 34.5956C64.3414 34.5521 64.3267 34.5032 64.3242 34.453V29.2534C64.3267 29.2009 64.3427 29.15 64.3706 29.1055L65.1774 29.5647C65.1503 29.6076 65.1354 29.6569 65.1341 29.7075V34.9156C65.1328 35.0016 65.1878 35.0498 65.277 35.0016Z" fill="black"/>
<path opacity="0.4" d="M69.9298 26.9108C69.9181 26.8368 69.8593 26.811 69.7869 26.8523L65.2774 29.4564C65.2353 29.4837 65.2004 29.5208 65.1759 29.5647L64.3691 29.1055C64.3927 29.0628 64.4271 29.0272 64.4688 29.0023L68.9721 26.3982C69.0168 26.3752 69.0665 26.3633 69.117 26.3633C69.1674 26.3633 69.2172 26.3752 69.2625 26.3982L69.7785 26.6889C69.8186 26.7124 69.8528 26.7445 69.8793 26.7829C69.9052 26.8212 69.9227 26.8649 69.9298 26.9108Z" fill="#B8C1EC"/>
<path d="M69.2985 29.8924C69.2985 31.2031 68.5019 32.727 67.5184 33.2946C66.5343 33.8622 65.7363 33.2602 65.7363 31.9478C65.7363 30.6355 66.5343 29.1133 67.5184 28.5457C68.5019 27.9781 69.2985 28.5801 69.2985 29.8924Z" fill="#FAFAFA"/>
<path d="M67.2781 30.3144V31.8332C67.2755 31.871 67.2645 31.9077 67.2458 31.9405C67.227 31.9734 67.2011 32.0014 67.1695 32.0224L66.8772 32.1944C66.8171 32.2288 66.7686 32.1944 66.7686 32.1308V30.6154C66.7711 30.5777 66.7821 30.5409 66.8009 30.5081C66.8196 30.4752 66.8455 30.4472 66.8772 30.4262L67.1695 30.2542C67.2283 30.2181 67.2781 30.2456 67.2781 30.3144Z" fill="#455A64"/>
<path d="M68.2979 29.7262V31.2433C68.296 31.281 68.285 31.3178 68.2663 31.3506C68.2475 31.3835 68.221 31.4115 68.1893 31.4325L67.897 31.6045C67.8369 31.6389 67.7871 31.6045 67.7871 31.5408V30.0238C67.7897 29.9861 67.8007 29.9495 67.8201 29.9169C67.8388 29.8843 67.8653 29.8567 67.897 29.8363L68.1893 29.6643C68.2501 29.6282 68.2979 29.6557 68.2979 29.7262Z" fill="#455A64"/>
<path d="M74.2124 24.0214L70.6004 26.1042C70.5668 26.1265 70.539 26.1562 70.519 26.1912C70.4989 26.2261 70.4873 26.2653 70.4854 26.3055V30.4662C70.4873 30.5064 70.4989 30.5456 70.519 30.5803C70.5397 30.615 70.5681 30.6443 70.6024 30.6657L71.0169 30.9048C71.0524 30.923 71.0925 30.9326 71.1326 30.9326C71.1734 30.9326 71.2128 30.923 71.249 30.9048L74.861 28.8218C74.8946 28.7998 74.9231 28.7701 74.9431 28.7352C74.9638 28.7002 74.9755 28.661 74.978 28.6206V24.4514C74.9755 24.4113 74.9632 24.3723 74.9431 24.3377C74.9224 24.3031 74.8946 24.2737 74.861 24.2518L74.4465 24.0196C74.4103 24.0013 74.3702 23.9919 74.3295 23.9922C74.2888 23.9925 74.2487 24.0025 74.2124 24.0214Z" fill="#BA68C8"/>
<path d="M71.1377 30.8371V26.6695C71.1396 26.6295 71.1513 26.5906 71.1713 26.5558C71.1914 26.5212 71.2192 26.4918 71.2528 26.47L74.8648 24.3853C74.9288 24.3493 74.9818 24.3853 74.9818 24.4525V28.62C74.9799 28.6604 74.9676 28.6996 74.9476 28.7346C74.9269 28.7695 74.8991 28.7992 74.8648 28.8213L71.2528 30.9041C71.1894 30.942 71.1377 30.9111 71.1377 30.8371Z" fill="#BA68C8"/>
<path d="M71.1377 30.8371V26.6695C71.1396 26.6295 71.1513 26.5906 71.1713 26.5558C71.1914 26.5212 71.2192 26.4918 71.2528 26.47L74.8648 24.3853C74.9288 24.3493 74.9818 24.3853 74.9818 24.4525V28.62C74.9799 28.6604 74.9676 28.6996 74.9476 28.7346C74.9269 28.7695 74.8991 28.7992 74.8648 28.8213L71.2528 30.9041C71.1894 30.942 71.1377 30.9111 71.1377 30.8371Z" fill="#BA68C8"/>
<path opacity="0.2" d="M71.2529 30.9037C71.2167 30.9215 71.1773 30.9308 71.1372 30.9308C71.0964 30.9308 71.057 30.9215 71.0208 30.9037L70.6063 30.6647C70.572 30.6433 70.5436 30.614 70.5235 30.5793C70.5028 30.5445 70.4912 30.5053 70.4893 30.4651V26.3062C70.4906 26.2641 70.5035 26.2232 70.5255 26.1875L71.1721 26.5556C71.1507 26.5896 71.1391 26.6289 71.1378 26.6691V30.8367C71.1378 30.9055 71.1844 30.9433 71.2529 30.9037Z" fill="black"/>
<path opacity="0.4" d="M74.9741 24.4244C74.9637 24.3659 74.9178 24.3453 74.859 24.378L71.247 26.4626C71.2134 26.4837 71.1855 26.5134 71.1661 26.5486L70.5195 26.1874C70.5389 26.1532 70.5667 26.1247 70.6004 26.1048L74.2124 24.0219C74.2486 24.0036 74.288 23.9941 74.3287 23.9941C74.3688 23.9941 74.4089 24.0036 74.4445 24.0219L74.859 24.2541C74.8887 24.2732 74.9146 24.2981 74.9346 24.3273C74.954 24.3566 74.9676 24.3897 74.9741 24.4244Z" fill="#B8C1EC"/>
<path d="M74.0821 26.2907V27.8077C74.0802 27.8456 74.0692 27.8824 74.0504 27.9153C74.0317 27.9482 74.0052 27.9762 73.9735 27.9969L73.6812 28.1689C73.6211 28.2033 73.5713 28.1689 73.5713 28.107V26.5883C73.5732 26.5506 73.5849 26.514 73.6036 26.4814C73.623 26.4488 73.6495 26.4212 73.6812 26.4008L73.9735 26.2288C74.0336 26.1927 74.0821 26.2202 74.0821 26.2907Z" fill="#455A64"/>
<path d="M72.0303 27.4905V28.9765C72.0303 29.0883 72.0885 29.109 72.1622 29.0264L73.5382 27.4406C73.6126 27.3563 73.5816 27.2892 73.4697 27.2892H72.2398C72.2127 27.2881 72.1855 27.2924 72.1603 27.302C72.1351 27.3116 72.1118 27.3262 72.0917 27.3451C72.0723 27.3639 72.0568 27.3864 72.0458 27.4114C72.0355 27.4364 72.0297 27.4633 72.0303 27.4905Z" fill="#455A64"/>
<path d="M62.7632 30.6337L59.1512 32.7167C59.1171 32.7386 59.0888 32.7683 59.0685 32.8033C59.0481 32.8382 59.0364 32.8775 59.0342 32.9179V37.0786C59.0365 37.1187 59.0483 37.1577 59.0687 37.1924C59.089 37.2271 59.1173 37.2564 59.1512 37.2781L59.5656 37.5172C59.6016 37.5355 59.6414 37.545 59.6818 37.545C59.7221 37.545 59.7619 37.5355 59.7978 37.5172L63.4098 35.4343C63.4435 35.4122 63.4715 35.3824 63.4916 35.3474C63.5115 35.3125 63.5231 35.2733 63.5251 35.233V31.0637C63.5231 31.0235 63.5115 30.9843 63.4911 30.9496C63.4707 30.9149 63.4423 30.8856 63.4082 30.8642L62.9936 30.632C62.9577 30.6143 62.9182 30.6052 62.8782 30.6055C62.8382 30.6058 62.7987 30.6155 62.7632 30.6337Z" fill="#BA68C8"/>
<path d="M59.6836 37.4484V33.2809C59.6856 33.2409 59.6971 33.2019 59.7172 33.1672C59.7372 33.1325 59.7652 33.1031 59.7988 33.0813L63.4108 30.9967C63.4744 30.9606 63.526 30.9967 63.526 31.0638V35.2313C63.524 35.2715 63.5125 35.3107 63.4925 35.3457C63.4724 35.3807 63.4445 35.4104 63.4108 35.4326L59.7988 37.5155C59.7386 37.5533 59.6836 37.5224 59.6836 37.4484Z" fill="#BA68C8"/>
<path d="M59.6836 37.4484V33.2809C59.6856 33.2409 59.6971 33.2019 59.7172 33.1672C59.7372 33.1325 59.7652 33.1031 59.7988 33.0813L63.4108 30.9967C63.4744 30.9606 63.526 30.9967 63.526 31.0638V35.2313C63.524 35.2715 63.5125 35.3107 63.4925 35.3457C63.4724 35.3807 63.4445 35.4104 63.4108 35.4326L59.7988 37.5155C59.7386 37.5533 59.6836 37.5224 59.6836 37.4484Z" fill="#BA68C8"/>
<path opacity="0.2" d="M59.8027 37.5151C59.7666 37.5328 59.7269 37.5421 59.6867 37.5421C59.6464 37.5421 59.6067 37.5328 59.5705 37.5151L59.156 37.276C59.1222 37.2543 59.0939 37.225 59.0736 37.1903C59.0532 37.1556 59.0414 37.1166 59.0391 37.0765V32.9175C59.0411 32.8753 59.0541 32.8344 59.0769 32.7988L59.7219 33.1669C59.7004 33.201 59.6885 33.2402 59.6875 33.2804V37.448C59.6841 37.5168 59.7357 37.5546 59.8027 37.5151Z" fill="black"/>
<path opacity="0.4" d="M63.5241 31.0426C63.5155 30.9841 63.4674 30.9635 63.4088 30.9962L59.7968 33.0808C59.7633 33.1024 59.7355 33.132 59.716 33.1668L59.0693 32.7987C59.0894 32.7652 59.1171 32.737 59.1502 32.7162L62.7622 30.6333C62.7981 30.615 62.8379 30.6055 62.8782 30.6055C62.9186 30.6055 62.9584 30.615 62.9944 30.6333L63.4088 30.8655C63.4394 30.8853 63.4655 30.9113 63.4853 30.9418C63.5052 30.9723 63.5184 31.0067 63.5241 31.0426Z" fill="#B8C1EC"/>
<path d="M61.0345 33.8607V35.3777C61.0328 35.4156 61.022 35.4525 61.0032 35.4854C60.9844 35.5183 60.9579 35.5462 60.9262 35.5669L60.6338 35.7389C60.5736 35.775 60.5254 35.7389 60.5254 35.677V34.16C60.5272 34.1221 60.5379 34.0852 60.5568 34.0523C60.5756 34.0194 60.602 33.9915 60.6338 33.9708L60.9262 33.7988C60.9864 33.7626 61.0345 33.7919 61.0345 33.8607Z" fill="#455A64"/>
<path d="M62.6886 34.4152V32.8672C62.6886 32.7485 62.6249 32.7244 62.5458 32.8138L61.0803 34.4702C61.0012 34.5596 61.0339 34.6319 61.1526 34.6319H62.4736C62.5306 34.631 62.585 34.6078 62.6252 34.5673C62.6653 34.5268 62.6881 34.4722 62.6886 34.4152Z" fill="#455A64"/>
<path d="M74.717 31.7737L58.9482 40.8776C58.9061 40.9052 58.871 40.9422 58.8459 40.9859C58.8208 41.0295 58.8064 41.0785 58.8037 41.1287V51.1821C58.8066 51.2319 58.8212 51.2802 58.8463 51.3233C58.8714 51.3663 58.9063 51.4028 58.9482 51.4298L59.4642 51.7291C59.5094 51.7515 59.5592 51.7632 59.6096 51.7632C59.66 51.7632 59.7097 51.7515 59.7549 51.7291L75.524 42.6234C75.566 42.5958 75.6009 42.5586 75.6262 42.5151C75.6514 42.4714 75.6656 42.4225 75.6682 42.3723V32.312C75.6656 32.2617 75.6514 32.2128 75.6255 32.1695C75.6003 32.126 75.5647 32.0894 75.522 32.0626L75.006 31.7719C74.9614 31.7495 74.9116 31.738 74.8612 31.7383C74.8114 31.7386 74.7616 31.7507 74.717 31.7737Z" fill="#455A64"/>
<path d="M75.6692 32.2849C75.6569 32.2127 75.5987 32.1869 75.5263 32.2282L59.7575 41.3339C59.7144 41.3606 59.6789 41.3979 59.6543 41.4422L58.8477 40.9813C58.8716 40.939 58.9059 40.9035 58.9474 40.8781L74.7161 31.7724C74.7613 31.7499 74.8111 31.7383 74.8616 31.7383C74.912 31.7383 74.9618 31.7499 75.0071 31.7724L75.5231 32.0631C75.5619 32.0871 75.5955 32.1195 75.6207 32.1578C75.6459 32.1962 75.6627 32.2395 75.6692 32.2849Z" fill="#37474F"/>
<path d="M59.6113 51.6422V41.5837C59.6142 41.5332 59.6289 41.4842 59.6543 41.4406C59.6797 41.3969 59.7151 41.3599 59.7575 41.3326L75.5266 32.2269C75.6055 32.1804 75.6708 32.2183 75.6708 32.3112V42.3697C75.6682 42.4199 75.6539 42.4689 75.6287 42.5125C75.6035 42.5561 75.5686 42.5932 75.5266 42.6209L59.7575 51.7265C59.6836 51.7712 59.6113 51.7351 59.6113 51.6422Z" fill="#455A64"/>
<path opacity="0.2" d="M59.7578 51.727C59.7126 51.749 59.6628 51.7605 59.6125 51.7605C59.5621 51.7605 59.5124 51.749 59.4672 51.727L58.9512 51.4277C58.9093 51.4008 58.8743 51.3642 58.8493 51.3212C58.8241 51.2782 58.8096 51.2298 58.8066 51.1801V41.1283C58.8085 41.076 58.8238 41.025 58.8514 40.9805L59.658 41.4414C59.6319 41.4846 59.6171 41.5337 59.615 41.5841V51.6427C59.6116 51.727 59.6718 51.7717 59.7578 51.727Z" fill="#263238"/>
<path d="M61.6175 49.3002C61.6157 49.3014 61.6136 49.3021 61.6115 49.3021C61.6093 49.3021 61.6072 49.3014 61.6054 49.3002C61.6048 49.2988 61.6045 49.2974 61.6045 49.2959C61.6045 49.2944 61.6048 49.293 61.6054 49.2916V49.2348L61.4334 49.338C61.4318 49.3388 61.43 49.3392 61.4283 49.3392C61.4265 49.3392 61.4247 49.3388 61.4231 49.338V49.3294V49.2692C61.4215 49.2595 61.4215 49.2497 61.4231 49.24L61.5951 48.927C61.5972 48.9219 61.6001 48.9173 61.6037 48.9132H61.6157L61.7017 48.8633C61.7017 48.8633 61.7103 48.8633 61.7121 48.8633V48.8719V49.0904L61.7602 49.0628C61.762 49.0616 61.764 49.0609 61.7662 49.0609C61.7684 49.0609 61.7705 49.0616 61.7723 49.0628V49.1248C61.7737 49.1287 61.7737 49.1329 61.7723 49.1368L61.7602 49.1488L61.7121 49.1764V49.2348C61.7132 49.2394 61.7132 49.2441 61.7121 49.2486C61.71 49.2532 61.7063 49.2569 61.7017 49.2589L61.6175 49.3002ZM61.6037 49.1437V49.0388L61.5211 49.1918L61.6037 49.1437Z" fill="#B8C1EC"/>
<path d="M61.9548 48.8901C61.9555 48.8947 61.9555 48.8993 61.9548 48.9039L61.9428 48.9142L61.8688 48.9572C61.8688 48.9572 61.8602 48.9572 61.8585 48.9572V48.8833C61.8571 48.8788 61.8571 48.8739 61.8585 48.8695C61.8592 48.867 61.8606 48.8648 61.8624 48.863C61.8642 48.8612 61.8664 48.8599 61.8688 48.8591L61.9428 48.8145H61.9548C61.9558 48.8172 61.9558 48.8202 61.9548 48.8231V48.8901ZM61.9548 49.0897C61.9555 49.0942 61.9555 49.0988 61.9548 49.1034L61.9428 49.1137L61.8688 49.1567C61.8688 49.1567 61.8602 49.1567 61.8585 49.1567V49.1481V49.0741C61.8571 49.0697 61.8571 49.0649 61.8585 49.0604C61.8592 49.058 61.8606 49.0558 61.8624 49.054C61.8642 49.0521 61.8664 49.0508 61.8688 49.0501L61.9428 49.0071C61.9445 49.0058 61.9467 49.0051 61.9488 49.0051C61.951 49.0051 61.9531 49.0058 61.9548 49.0071V49.0897Z" fill="#B8C1EC"/>
<path d="M62.243 48.9389C62.243 48.9389 62.2344 48.9389 62.2309 48.9389C62.2303 48.9375 62.23 48.936 62.23 48.9345C62.23 48.9331 62.2303 48.9316 62.2309 48.9303V48.8718L62.0503 48.9767H62.04V48.9165C62.0402 48.9062 62.0432 48.8961 62.0486 48.8873L62.2206 48.5742L62.2292 48.5605C62.2325 48.5567 62.2366 48.5537 62.2413 48.5519L62.3273 48.502C62.3273 48.502 62.3359 48.502 62.3376 48.502V48.5106V48.729L62.3875 48.6998H62.3978C62.3985 48.7011 62.399 48.7026 62.399 48.7041C62.399 48.7056 62.3985 48.7071 62.3978 48.7084V48.7686C62.3992 48.7731 62.3992 48.7779 62.3978 48.7823L62.3875 48.7944L62.3376 48.8219V48.8804C62.3388 48.8849 62.3388 48.8896 62.3376 48.8941C62.3355 48.8987 62.3319 48.9024 62.3273 48.9045L62.243 48.9389ZM62.2292 48.7806V48.6757L62.1467 48.8288L62.2292 48.7806Z" fill="#B8C1EC"/>
<path d="M72.8578 42.6735C72.8578 42.6966 72.8533 42.7195 72.8436 42.7406C72.8352 42.7646 72.8229 42.7872 72.8074 42.8077C72.7912 42.8293 72.7731 42.8495 72.7524 42.8679C72.733 42.8854 72.7117 42.901 72.6891 42.9143C72.6684 42.9265 72.6464 42.9358 72.6238 42.9419C72.6057 42.9459 72.5869 42.9459 72.5688 42.9419C72.5539 42.9389 72.5404 42.9311 72.5307 42.9195C72.521 42.9034 72.5164 42.8849 72.5171 42.8661C72.5151 42.8548 72.5151 42.8432 72.5171 42.8317L72.5274 42.7991C72.5307 42.7882 72.5352 42.7778 72.541 42.7681L72.5546 42.7389L72.6652 42.5291V42.517L72.6768 42.5067L72.768 42.4551V42.4637L72.6923 42.6081C72.7104 42.5993 72.7298 42.5929 72.7492 42.5893C72.7647 42.5856 72.7803 42.5856 72.7958 42.5893C72.8087 42.5942 72.8203 42.6033 72.8281 42.6151C72.8449 42.6304 72.8553 42.6511 72.8578 42.6735ZM72.6238 42.8094C72.6218 42.8156 72.6218 42.8222 72.6238 42.8283C72.6289 42.8302 72.6341 42.8302 72.6393 42.8283C72.6458 42.8299 72.6529 42.8299 72.66 42.8283L72.6839 42.818L72.7065 42.8008C72.7137 42.7948 72.7208 42.7879 72.7266 42.7801C72.7324 42.7719 72.7376 42.7633 72.7421 42.7543C72.744 42.7458 72.744 42.7371 72.7421 42.7285C72.744 42.7224 72.744 42.7158 72.7421 42.7097C72.7376 42.708 72.7318 42.708 72.7266 42.7097C72.7201 42.7071 72.713 42.7071 72.7065 42.7097C72.6981 42.7116 72.6904 42.7151 72.6839 42.7199C72.6749 42.7241 72.6664 42.7299 72.66 42.7371C72.6522 42.7431 72.6451 42.7501 72.6393 42.7578C72.6328 42.7656 72.6277 42.7743 72.6238 42.7836C72.6218 42.7921 72.6218 42.8009 72.6238 42.8094Z" fill="#B8C1EC"/>
<path d="M73.04 42.4831C73.0407 42.4876 73.0407 42.4923 73.04 42.4968L73.0297 42.5071L72.9553 42.5501C72.9553 42.5501 72.9469 42.5501 72.9437 42.5501C72.943 42.5488 72.9424 42.5473 72.9424 42.5459C72.9424 42.5444 72.943 42.5429 72.9437 42.5415V42.4831C72.9424 42.4785 72.9424 42.4739 72.9437 42.4693C72.9463 42.4645 72.9501 42.4608 72.9553 42.459L73.0297 42.416C73.0297 42.416 73.0381 42.416 73.04 42.416C73.0413 42.416 73.04 42.416 73.04 42.416V42.4831ZM73.04 42.6826C73.0407 42.6871 73.0407 42.6919 73.04 42.6963C73.0374 42.7006 73.0336 42.7041 73.0297 42.7067L72.9553 42.7497C72.9553 42.7497 72.9469 42.7497 72.9437 42.7497V42.6757C72.9424 42.6712 72.9424 42.6665 72.9437 42.6619C72.9463 42.6571 72.9501 42.6535 72.9553 42.6516L73.0297 42.6086C73.0297 42.6086 73.0381 42.6086 73.04 42.6086C73.0413 42.6086 73.04 42.6086 73.04 42.6086V42.6826Z" fill="#B8C1EC"/>
<path d="M73.4253 42.084H73.444C73.4447 42.0853 73.4453 42.0868 73.4453 42.0883C73.4453 42.0898 73.4447 42.0913 73.444 42.0926V42.1528C73.4447 42.1574 73.4447 42.162 73.444 42.1666C73.444 42.1711 73.444 42.1757 73.444 42.1803L73.3748 42.2887C73.3987 42.2812 73.424 42.2812 73.4472 42.2887C73.4576 42.2939 73.466 42.3022 73.4712 42.3124C73.4763 42.3226 73.4783 42.3341 73.4763 42.3455C73.4757 42.39 73.4602 42.4329 73.4317 42.4676C73.3975 42.5103 73.3548 42.5459 73.3063 42.5725C73.2836 42.5862 73.2597 42.5966 73.2339 42.6035C73.2164 42.6083 73.1983 42.6083 73.1808 42.6035C73.1686 42.6026 73.1569 42.597 73.1479 42.588C73.1401 42.5785 73.1356 42.5662 73.1362 42.5536C73.1343 42.5497 73.1343 42.5454 73.1362 42.5415C73.1382 42.5378 73.1407 42.5349 73.1446 42.5329L73.217 42.4916C73.2196 42.4903 73.2222 42.4896 73.2255 42.4896C73.2287 42.4896 73.2313 42.4903 73.2339 42.4916H73.2481H73.2688C73.2811 42.4901 73.2927 42.4853 73.303 42.4779C73.3199 42.4681 73.3354 42.456 73.3496 42.4418C73.3548 42.4366 73.3593 42.4305 73.3619 42.4237C73.3651 42.4169 73.3664 42.4096 73.3664 42.4022C73.3664 42.3885 73.3664 42.3833 73.3496 42.3833C73.3328 42.3863 73.3173 42.3921 73.303 42.4005L73.2565 42.428C73.2565 42.428 73.2565 42.428 73.2461 42.428V42.3798C73.2455 42.3753 73.2455 42.3706 73.2461 42.3661C73.2487 42.3613 73.2513 42.3567 73.2546 42.3523L73.3147 42.256L73.1673 42.342C73.1673 42.342 73.1582 42.342 73.155 42.342C73.1517 42.342 73.155 42.342 73.155 42.342V42.2818C73.1543 42.2767 73.1556 42.2716 73.1588 42.2672C73.1614 42.2629 73.1653 42.2595 73.1705 42.2577L73.4253 42.084Z" fill="#B8C1EC"/>
<path d="M73.7108 41.9135C73.7341 41.8998 73.7586 41.8899 73.7851 41.8843C73.8013 41.8797 73.8188 41.8797 73.8349 41.8843C73.8485 41.891 73.8595 41.9027 73.866 41.917C73.8724 41.9334 73.877 41.9508 73.8776 41.9686V42.07C73.8763 42.0928 73.8724 42.1153 73.866 42.1371C73.8588 42.1603 73.8485 42.1823 73.8349 42.2025C73.8207 42.2256 73.8039 42.2469 73.7851 42.2661C73.7625 42.2871 73.7379 42.3056 73.7108 42.3212C73.6881 42.3351 73.6629 42.3455 73.6371 42.3521C73.6202 42.3576 73.6021 42.3576 73.5853 42.3521C73.573 42.345 73.5627 42.3342 73.5562 42.3212C73.5491 42.3042 73.5452 42.2862 73.5439 42.2678C73.5439 42.2524 73.5439 42.2369 73.5439 42.218C73.5439 42.199 73.5439 42.1836 73.5439 42.1664C73.5459 42.1442 73.5498 42.1223 73.5562 42.101C73.564 42.0778 73.5737 42.0553 73.5853 42.0339C73.6002 42.0107 73.6177 41.9894 73.6371 41.9703C73.6597 41.9488 73.6843 41.9298 73.7108 41.9135ZM73.7709 42.132C73.7728 42.0999 73.7728 42.0677 73.7709 42.0356C73.7722 42.0277 73.7722 42.0196 73.7709 42.0116C73.7696 42.006 73.7657 42.0012 73.7606 41.9978C73.758 41.9964 73.7547 41.9957 73.7515 41.9957C73.7483 41.9957 73.745 41.9964 73.7418 41.9978C73.7321 41.9995 73.7231 42.003 73.7147 42.0081C73.7037 42.0141 73.694 42.0217 73.6849 42.0305C73.6784 42.0377 73.6726 42.0458 73.6681 42.0546C73.6629 42.063 73.659 42.0723 73.6578 42.0821C73.6571 42.0912 73.6571 42.1005 73.6578 42.1096C73.6558 42.1417 73.6558 42.1739 73.6578 42.2059C73.6565 42.214 73.6565 42.222 73.6578 42.23C73.6565 42.2351 73.6565 42.2404 73.6578 42.2455C73.6636 42.2472 73.6707 42.2472 73.6765 42.2455C73.6868 42.2431 73.6965 42.239 73.7056 42.2334C73.7153 42.2274 73.725 42.2205 73.7334 42.2128C73.7405 42.205 73.747 42.1964 73.7522 42.187C73.7573 42.179 73.7606 42.1703 73.7625 42.1612C73.7657 42.1545 73.769 42.1476 73.7709 42.1406V42.132Z" fill="#B8C1EC"/>
<path opacity="0.3" d="M63.4869 47.692L71.7977 42.8932C71.9341 42.814 72.044 42.8708 72.044 43.0188C72.0382 43.1015 72.013 43.1818 71.9703 43.2529C71.927 43.3241 71.8682 43.3841 71.7977 43.4281L63.4869 48.2269C63.3511 48.306 63.2393 48.2492 63.2393 48.1014C63.2453 48.0184 63.2708 47.938 63.3139 47.8669C63.3569 47.7957 63.4162 47.7358 63.4869 47.692Z" fill="#B8C1EC"/>
<path d="M63.4869 47.6919L69.7272 44.0885C69.863 44.0093 69.9749 44.0661 69.9749 44.2141C69.9684 44.2969 69.9425 44.3771 69.8999 44.4482C69.8565 44.5193 69.7977 44.5793 69.7272 44.6234L63.4869 48.2268C63.3511 48.3059 63.2393 48.2491 63.2393 48.1013C63.2453 48.0183 63.2708 47.9379 63.3139 47.8668C63.3569 47.7956 63.4162 47.7357 63.4869 47.6919Z" fill="#B8C1EC"/>
<path d="M74.9764 36.6367L74.2405 37.0599C73.9373 37.2319 73.4096 37.5638 73.107 37.4813C72.8522 37.4125 72.6563 37.0701 72.3052 37.2731C72.0834 37.4004 71.8377 38.1865 71.4057 38.4359C70.9738 38.6853 70.7177 37.9817 70.5781 37.6189C70.4391 37.2559 70.1933 36.5765 69.6786 36.8723C69.1646 37.1682 68.8982 38.2088 68.571 38.9725C68.2444 39.7361 67.8196 40.4757 67.2952 40.7785C66.6757 41.1363 66.249 40.9625 65.9586 41.1311C65.6677 41.2997 65.4233 41.8329 65.0986 42.1407C64.8096 42.4211 64.364 42.6911 64.1078 42.4847C63.8515 42.2783 63.6674 41.7485 63.4094 41.8965C63.1514 42.0444 62.9433 42.9009 62.6991 43.3293C62.4548 43.7575 62.1831 44.0173 61.4624 44.4317L60.0967 45.2195V45.3175L60.685 44.9735C60.9791 44.8015 61.3936 44.5797 61.6705 44.6967C61.9474 44.8136 61.9595 44.9203 62.2037 44.7792C62.4479 44.6381 62.5477 44.4352 62.7197 44.1583C62.833 43.9452 62.9951 43.7619 63.1927 43.6233C63.3647 43.5185 63.6004 43.6233 63.7431 43.7609C63.8859 43.8985 64.0252 44.0482 64.2368 43.9329C64.4577 43.7694 64.6291 43.548 64.732 43.2931C64.8697 43.0248 64.9454 42.8133 65.0967 42.7238C65.2635 42.6468 65.4523 42.631 65.6302 42.6791C65.9173 42.7258 66.2121 42.6646 66.4572 42.5071C66.8148 42.3007 67.2312 41.9361 67.7543 41.0038L68.5471 40.5445C69.1251 40.2126 69.5241 40.0183 69.7892 40.0801C70.119 40.1559 70.5729 40.7923 71.0669 40.505C71.5603 40.2177 71.7051 39.473 71.9489 38.9811C72.1429 38.514 72.4979 38.1323 72.9505 37.9061L74.9693 36.7399L74.9764 36.6367Z" fill="#BA68C8"/>
<path opacity="0.2" d="M70.5778 40.5281C70.2803 40.4145 70.01 40.1255 69.7954 40.0757C69.5303 40.0137 69.1313 40.2081 68.5532 40.5401L67.7676 40.9993C68.2247 40.1789 68.6599 38.8941 68.8235 38.3849C68.894 38.1682 68.9729 37.9515 69.066 37.7399C69.1591 37.5122 69.282 37.2977 69.4307 37.1018C69.6867 36.8352 69.8794 36.8059 70.0036 37.1155C70.1271 37.4251 70.0359 38.3471 70.0585 39.1297C70.0805 39.9123 70.2874 40.3526 70.5778 40.5281Z" fill="black"/>
<path opacity="0.2" d="M64.1131 42.4834C64.3694 42.6864 64.8149 42.4164 65.104 42.1394C65.4234 41.8316 65.6665 41.2984 65.964 41.1298C66.2614 40.9612 66.6811 41.1298 67.3005 40.7772C67.5036 40.6522 67.682 40.4907 67.8269 40.3008C67.6012 40.6448 67.2591 41.288 66.5899 41.7714C66.2013 42.0517 65.6969 42.2237 65.4738 42.3527C65.2475 42.4803 65.0632 42.671 64.9436 42.9014C64.8802 43.0063 64.8214 43.1405 64.7445 43.2918C64.6413 43.5467 64.4699 43.7681 64.249 43.9317C64.209 43.9579 64.1629 43.9732 64.1152 43.9759C64.0674 43.9786 64.0199 43.9687 63.9772 43.9472C63.7897 43.801 63.7054 43.481 63.6814 42.8068C63.6521 42.0276 63.542 41.8763 63.4199 41.8986C63.6727 41.7542 63.8568 42.2891 64.1131 42.4834Z" fill="black"/>
<path opacity="0.2" d="M70.0523 39.1294C70.0303 38.3468 70.1228 37.4248 69.9973 37.1152C69.9133 36.9054 69.7982 36.8521 69.6533 36.9209C69.8719 36.8916 70.0646 37.2374 69.9372 38.0888C69.8667 38.56 69.6585 39.4442 69.7652 40.0702C69.7775 40.0694 69.7891 40.0694 69.8014 40.0702C70.0167 40.1201 70.2864 40.4142 70.5838 40.5226C70.2883 40.3523 70.0749 39.9137 70.0523 39.1294Z" fill="black"/>
<path opacity="0.2" d="M67.7676 40.9996L68.206 40.7451C68.3592 40.3323 68.4918 39.9122 68.603 39.486C68.775 38.8686 68.9063 38.1428 69.066 37.7402C68.9729 37.9518 68.894 38.1686 68.8235 38.3852C68.6534 38.8944 68.2183 40.1792 67.7676 40.9996Z" fill="black"/>
<path opacity="0.5" d="M72.0682 37.5792C71.8962 37.8682 71.6931 38.2672 71.4041 38.4392C70.9728 38.6886 70.7161 37.9851 70.5771 37.6222C70.5357 37.5173 70.4859 37.3831 70.4238 37.2559C70.5958 37.6239 70.7407 38.2982 70.8454 38.6783C70.9347 39.0017 71.0258 39.2218 71.2787 39.1238C71.5315 39.0257 71.7054 38.4925 71.8102 38.2053C71.8819 37.9911 71.9679 37.7819 72.0682 37.5792Z" fill="#B8C1EC"/>
<path opacity="0.2" d="M72.1109 38.062C71.9803 38.4662 71.9202 38.9118 71.7158 39.5619C71.7966 39.3555 71.8704 39.1491 71.9564 38.9771C72.1497 38.51 72.5053 38.1284 72.9573 37.9021L73.6195 37.5202C72.9812 37.8884 72.7064 37.6062 72.5532 37.5202C72.3999 37.4342 72.2402 37.6578 72.1109 38.062Z" fill="black"/>
<path opacity="0.2" d="M72.464 37.5039C72.3398 37.528 72.2163 37.7344 72.1109 38.0612C71.9803 38.4654 71.9202 38.9109 71.7158 39.5611C71.7966 39.3547 71.8704 39.1483 71.9564 38.9763C72.0184 38.8507 72.0766 38.7423 72.1284 38.6425C72.1523 38.4499 72.1678 38.2813 72.1782 38.1816C72.2176 37.8841 72.3262 37.6037 72.464 37.5039Z" fill="black"/>
<path opacity="0.2" d="M67.2946 40.7818C66.6758 41.1396 66.249 40.9658 65.9581 41.1344C65.9089 41.1635 65.8643 41.1987 65.8242 41.2393C66.0201 41.0673 66.3402 41.1963 66.5859 41.2393C66.8355 41.2668 67.0864 41.2117 67.3017 41.0828C67.488 40.835 67.66 40.5772 67.8177 40.3105C67.6735 40.4983 67.4964 40.658 67.2946 40.7818Z" fill="black"/>
<path opacity="0.2" d="M63.6755 42.8109C63.6995 43.4852 63.7839 43.8051 63.9713 43.9513C64.014 43.9728 64.0616 43.9827 64.1093 43.98C64.157 43.9773 64.2031 43.962 64.2431 43.9358C64.4443 43.7924 64.6025 43.5968 64.7006 43.3699C64.4512 43.7139 64.0763 43.7707 63.9696 43.4439C63.863 43.1171 63.8595 42.663 63.7856 42.3534C63.7116 42.0438 63.6273 41.8839 63.5069 41.877H63.4829H63.4657H63.4553H63.4416L63.4141 41.889C63.5361 41.8804 63.6393 42.0318 63.6755 42.8109Z" fill="black"/>
<path opacity="0.5" d="M62.7045 43.3435C62.4585 43.7718 62.1885 44.0315 61.4678 44.446L61.3096 44.5372C62.2195 44.0212 62.5755 44.1485 62.8111 43.6513C63.0468 43.1543 63.1397 42.3218 63.2583 42.0879C63.0691 42.3923 62.8971 42.9995 62.7045 43.3435Z" fill="#B8C1EC"/>
<path opacity="0.5" d="M68.1853 40.1094C68.0592 40.4139 67.9169 40.7112 67.7592 41.0003C67.2432 41.9326 66.8216 42.2973 66.464 42.5037C66.2196 42.6622 65.9254 42.7235 65.6383 42.6757C65.4598 42.6289 65.271 42.6453 65.1035 42.7221C65.3156 42.5799 65.5684 42.5099 65.8238 42.5225C66.1096 42.5139 66.5306 42.3884 67.0162 41.9068C67.5012 41.4252 68.1646 40.1489 68.1853 40.1094Z" fill="#B8C1EC"/>
<path d="M65.6795 44.2813C65.6827 44.2788 65.6866 44.2773 65.6898 44.2773C65.6937 44.2773 65.6976 44.2788 65.7002 44.2813C65.7034 44.2896 65.7034 44.2988 65.7002 44.3071V44.3639C65.7027 44.3758 65.7027 44.388 65.7002 44.4C65.6989 44.4052 65.6963 44.41 65.6924 44.4141C65.6892 44.4182 65.6846 44.4216 65.6795 44.4241L65.4855 44.5376V45.4767C65.4848 45.4892 65.4823 45.5015 65.4771 45.5128C65.4726 45.5226 65.4648 45.5309 65.4564 45.5369L65.4131 45.561C65.4118 45.5624 65.4105 45.5636 65.4092 45.5644C65.4072 45.5651 65.4053 45.5655 65.404 45.5655C65.4021 45.5655 65.4001 45.5651 65.3982 45.5644C65.3969 45.5636 65.3956 45.5624 65.3943 45.561C65.3911 45.5577 65.3885 45.5536 65.3866 45.5491C65.3853 45.5446 65.3846 45.5399 65.3859 45.5351V44.5961L65.1893 44.7096C65.1867 44.7118 65.1829 44.713 65.179 44.713C65.1758 44.713 65.1719 44.7118 65.1686 44.7096C65.1628 44.7024 65.1596 44.6932 65.1602 44.6838V44.6253C65.1609 44.6133 65.1635 44.6016 65.1686 44.5909C65.1686 44.5789 65.1809 44.5703 65.1893 44.5668L65.6795 44.2813Z" fill="#B8C1EC"/>
<path d="M66.3611 43.8883C66.3643 43.886 66.3676 43.8848 66.3715 43.8848C66.3753 43.8848 66.3786 43.886 66.3818 43.8883C66.3876 43.8954 66.3909 43.9046 66.3902 43.9141V44.9547C66.3902 44.9671 66.387 44.9794 66.3818 44.9907C66.3779 45.0009 66.3708 45.0094 66.3611 45.0149L66.3178 45.0389C66.3171 45.0403 66.3159 45.0415 66.3139 45.0423C66.312 45.0431 66.3107 45.0435 66.3087 45.0435C66.3068 45.0435 66.3049 45.0431 66.3036 45.0423C66.3016 45.0415 66.3003 45.0403 66.299 45.0389C66.2958 45.0306 66.2958 45.0214 66.299 45.0131V44.5591L65.9311 44.7723V45.2264C65.9337 45.2383 65.9337 45.2506 65.9311 45.2625C65.9272 45.2727 65.9201 45.2811 65.9104 45.2866L65.869 45.3107C65.86 45.3107 65.8529 45.3107 65.8483 45.3107C65.8419 45.303 65.8393 45.2931 65.8399 45.2831V44.2511C65.8406 44.2392 65.8432 44.2275 65.8483 44.2167C65.8503 44.2116 65.8529 44.2068 65.8568 44.2026C65.86 44.1985 65.8645 44.1951 65.869 44.1927L65.9104 44.1669C65.9137 44.1646 65.9169 44.1635 65.9208 44.1635C65.9246 44.1635 65.9279 44.1646 65.9311 44.1669C65.9343 44.1752 65.9343 44.1843 65.9311 44.1927V44.6347L66.299 44.4215V43.9794C66.2971 43.968 66.2971 43.9563 66.299 43.945C66.3023 43.9351 66.3094 43.9266 66.3178 43.9209L66.3611 43.8883Z" fill="#B8C1EC"/>
<path d="M67.0214 44.4897C67.0246 44.4876 67.0279 44.4865 67.0311 44.4865C67.0343 44.4865 67.0376 44.4876 67.0408 44.4897C67.044 44.4929 67.0466 44.497 67.0479 44.5015C67.0499 44.506 67.0499 44.5108 67.0492 44.5155V44.574C67.0499 44.586 67.0466 44.598 67.0408 44.6084C67.0363 44.6184 67.0298 44.6273 67.0214 44.6342L66.5985 44.8784C66.5953 44.8806 66.592 44.8818 66.5882 44.8818C66.5843 44.8818 66.5811 44.8806 66.5778 44.8784C66.572 44.8713 66.5688 44.862 66.5694 44.8526V43.8206C66.5694 43.8081 66.5727 43.7958 66.5778 43.7845C66.5778 43.7724 66.5901 43.7638 66.5985 43.7604L67.013 43.5213C67.0156 43.5189 67.0188 43.5176 67.0227 43.5176C67.0259 43.5176 67.0292 43.5189 67.0318 43.5213C67.0337 43.5253 67.035 43.5297 67.035 43.5342C67.035 43.5387 67.0337 43.5431 67.0318 43.5471V43.6056C67.035 43.6174 67.035 43.6299 67.0318 43.6417C67.0279 43.6513 67.0214 43.6596 67.013 43.6658L66.669 43.8636V44.2076L66.991 44.0218C66.9936 44.0197 66.9968 44.0186 67.0001 44.0186C67.0033 44.0186 67.0072 44.0197 67.0098 44.0218C67.0156 44.029 67.0188 44.0382 67.0182 44.0476V44.1061C67.0182 44.1181 67.0149 44.1299 67.0098 44.1405C67.0059 44.1506 66.9994 44.1595 66.991 44.1663L66.669 44.3504V44.6944L67.0214 44.4897Z" fill="#B8C1EC"/>
<path d="M67.6697 43.1164C67.7027 43.0941 67.7415 43.0822 67.7816 43.082C67.8113 43.0831 67.8404 43.0921 67.8656 43.1078C67.8883 43.125 67.9057 43.1475 67.9174 43.1732C67.9283 43.1988 67.9348 43.2262 67.9361 43.254C67.9387 43.2637 67.9387 43.2736 67.9361 43.2833C67.9322 43.2911 67.9264 43.2976 67.9193 43.3022L67.876 43.328C67.8708 43.3301 67.8643 43.3301 67.8592 43.328C67.8592 43.328 67.8488 43.3194 67.8436 43.3073C67.8391 43.2964 67.8333 43.286 67.8262 43.2764C67.8184 43.2637 67.8068 43.2535 67.7939 43.2471C67.779 43.2384 67.7622 43.2342 67.7454 43.2351C67.7208 43.2361 67.6969 43.2439 67.6768 43.2575C67.6561 43.2692 67.638 43.2836 67.6219 43.3005C67.6031 43.3175 67.5863 43.3373 67.5734 43.3589C67.5591 43.3816 67.5475 43.4059 67.5391 43.4312C67.5307 43.4573 67.5268 43.4846 67.5268 43.512C67.5255 43.5339 67.53 43.5558 67.5391 43.5757C67.5436 43.5829 67.5488 43.5892 67.5559 43.5943C67.5624 43.5993 67.5701 43.6029 67.5785 43.6049C67.6005 43.6093 67.6238 43.6093 67.6458 43.6049C67.6794 43.602 67.7124 43.5974 67.7454 43.5911C67.7783 43.5863 67.812 43.5863 67.8449 43.5911C67.8701 43.5935 67.8941 43.6031 67.9141 43.6187C67.9322 43.6347 67.9452 43.6556 67.9516 43.6789C67.96 43.7121 67.9639 43.7462 67.9639 43.7803C67.9639 43.8293 67.9568 43.8779 67.9432 43.9248C67.929 43.9726 67.9102 44.0187 67.8863 44.0624C67.8624 44.1053 67.832 44.1447 67.7971 44.1794C67.7641 44.2159 67.7247 44.2467 67.682 44.2706C67.6484 44.2922 67.6096 44.3052 67.5701 44.3084C67.5391 44.3111 67.5087 44.3038 67.4822 44.2877C67.4576 44.2729 67.4369 44.2515 67.424 44.2258C67.4091 44.1971 67.4014 44.1652 67.4014 44.1329C67.3988 44.1239 67.3988 44.1144 67.4014 44.1054C67.4046 44.0974 67.4104 44.0903 67.4169 44.0848L67.4602 44.0607C67.4628 44.0593 67.466 44.0586 67.4693 44.0586C67.4725 44.0586 67.4757 44.0593 67.4789 44.0607C67.4789 44.0607 67.4893 44.0693 67.4925 44.0813C67.4971 44.0948 67.5035 44.1075 67.5113 44.1192C67.521 44.1321 67.5333 44.1427 67.5475 44.1501C67.5643 44.1569 67.5831 44.1598 67.6012 44.1587C67.6277 44.1554 67.6529 44.146 67.6749 44.1312C67.7001 44.1171 67.7234 44.0991 67.7434 44.0779C67.7667 44.0573 67.7861 44.0335 67.8023 44.0074C67.8191 43.9824 67.8326 43.9552 67.8417 43.9265C67.852 43.8996 67.8572 43.871 67.8572 43.8423C67.8592 43.8202 67.8533 43.7982 67.8398 43.7803C67.8281 43.7659 67.8107 43.7567 67.7919 43.7545C67.766 43.7493 67.7402 43.7493 67.7143 43.7545C67.68 43.7585 67.6464 43.7642 67.6128 43.7717C67.5837 43.7769 67.5533 43.7769 67.5236 43.7717C67.5003 43.7669 67.4789 43.7549 67.4634 43.7373C67.4473 43.7187 67.4356 43.6962 67.4305 43.672C67.4233 43.6404 67.4201 43.6081 67.4201 43.5757C67.4208 43.5334 67.4259 43.4912 67.4356 43.4501C67.4466 43.406 67.4621 43.3634 67.4822 43.3228C67.5035 43.2819 67.5294 43.2438 67.5598 43.2093C67.5915 43.1728 67.6283 43.1414 67.6697 43.1164Z" fill="#B8C1EC"/>
<path d="M68.0659 43.3251C68.0665 43.2639 68.073 43.2028 68.0853 43.1428C68.0982 43.0837 68.117 43.0261 68.1416 42.9708C68.1655 42.9188 68.1959 42.8697 68.2314 42.8246C68.2657 42.7833 68.3071 42.7479 68.353 42.7197C68.3905 42.6965 68.4332 42.6839 68.4772 42.6836C68.5108 42.6864 68.5425 42.7011 68.5664 42.7249C68.5935 42.7557 68.6129 42.7922 68.6233 42.8315C68.6362 42.8832 68.6427 42.9364 68.642 42.9897C68.642 43.0843 68.642 43.1806 68.642 43.277C68.6414 43.3383 68.6343 43.3993 68.6213 43.4593C68.6091 43.5185 68.5897 43.5762 68.5651 43.6313C68.5418 43.6833 68.5121 43.732 68.4752 43.7758C68.4416 43.8179 68.4002 43.8534 68.353 43.8807C68.3168 43.904 68.2748 43.9166 68.2314 43.9168C68.2146 43.9162 68.1985 43.9122 68.1829 43.9051C68.1681 43.898 68.1545 43.888 68.1435 43.8755C68.115 43.8451 68.0956 43.8077 68.0866 43.7672C68.0724 43.7163 68.0653 43.6635 68.0659 43.6106C68.0627 43.516 68.0627 43.4215 68.0659 43.3251ZM68.5444 43.0568C68.5444 43.0155 68.5386 42.9744 68.5269 42.9347C68.5218 42.9077 68.5075 42.8829 68.4875 42.8642C68.4797 42.8568 68.4707 42.8509 68.4603 42.8471C68.4506 42.8432 68.4396 42.8414 68.4293 42.8418C68.4021 42.8442 68.3763 42.8524 68.353 42.8659C68.3265 42.8836 68.3013 42.9043 68.2793 42.9278C68.2554 42.9546 68.236 42.9847 68.2211 43.0173C68.203 43.0547 68.1894 43.0939 68.1797 43.1342C68.1707 43.1807 68.1655 43.2279 68.1642 43.2752C68.1642 43.3251 68.1642 43.3698 68.1642 43.4128C68.1642 43.4558 68.1642 43.4989 68.1642 43.547C68.1648 43.5881 68.17 43.6291 68.1797 43.6691C68.1868 43.6959 68.201 43.7203 68.2211 43.7396C68.2288 43.7471 68.2379 43.7529 68.2476 43.7567C68.2579 43.7605 68.2683 43.7623 68.2793 43.762C68.3058 43.76 68.331 43.7511 68.353 43.7362C68.3821 43.7201 68.4073 43.6991 68.4293 43.6743C68.4532 43.6477 68.4726 43.6175 68.4875 43.5849C68.5056 43.5484 68.5192 43.5096 68.5269 43.4696C68.5373 43.4227 68.5431 43.3749 68.5444 43.3269C68.5444 43.2787 68.5444 43.2323 68.5444 43.191C68.5444 43.1497 68.5444 43.105 68.5444 43.0568Z" fill="#B8C1EC"/>
<path d="M69.2762 43.3311C69.2665 43.3311 69.2594 43.3311 69.2523 43.3311C69.2451 43.3241 69.2393 43.316 69.2354 43.307L68.8914 42.7153V43.5151C68.8908 43.5276 68.8882 43.5399 68.8824 43.5513C68.8792 43.5612 68.8727 43.5697 68.8636 43.5753L68.821 43.6011C68.8177 43.6034 68.8139 43.6045 68.8106 43.6045C68.8067 43.6045 68.8029 43.6034 68.8003 43.6011C68.797 43.5928 68.797 43.5836 68.8003 43.5753V42.5347C68.7977 42.5228 68.7977 42.5105 68.8003 42.4986C68.8016 42.4934 68.8042 42.4886 68.808 42.4845C68.8113 42.4803 68.8158 42.477 68.821 42.4745L68.8565 42.4521C68.8669 42.4521 68.874 42.4521 68.8811 42.4521C68.8876 42.4589 68.8934 42.4664 68.8979 42.4745L69.2419 43.0662V42.275C69.2426 42.2625 69.2451 42.2502 69.251 42.2389C69.2542 42.2289 69.2607 42.2205 69.2697 42.2148L69.3124 42.189C69.3156 42.1868 69.3195 42.1855 69.3227 42.1855C69.3266 42.1855 69.3305 42.1868 69.3331 42.189C69.3363 42.1973 69.3363 42.2065 69.3331 42.2148V43.2554C69.3357 43.2673 69.3357 43.2796 69.3331 43.2915C69.3318 43.2967 69.3292 43.3015 69.3253 43.3056C69.3221 43.3098 69.3176 43.3131 69.3124 43.3156L69.2762 43.3311Z" fill="#B8C1EC"/>
<path d="M69.4883 42.4951C69.4889 42.4373 69.4954 42.3797 69.507 42.3231C69.5193 42.2638 69.5387 42.206 69.5639 42.1511C69.5878 42.0975 69.6189 42.0477 69.657 42.0032C69.6939 41.9599 69.7379 41.9232 69.7877 41.8948C69.8245 41.8703 69.8672 41.856 69.9112 41.8535C69.9441 41.8535 69.9758 41.8637 70.0023 41.8828C70.0263 41.9004 70.045 41.9242 70.056 41.9516C70.0676 41.9795 70.0748 42.0091 70.0767 42.0393C70.0786 42.0483 70.0786 42.0578 70.0767 42.0668C70.0735 42.0754 70.067 42.0826 70.0592 42.0875L70.0166 42.1115C70.001 42.1219 69.9907 42.1219 69.9868 42.1115C69.9791 42.0923 69.9694 42.0739 69.9577 42.0565C69.9487 42.0412 69.9357 42.0286 69.9202 42.0204C69.9034 42.0121 69.8846 42.0091 69.8665 42.0118C69.8413 42.0159 69.8168 42.0253 69.7948 42.0393C69.765 42.0565 69.7385 42.078 69.7152 42.1029C69.6907 42.1308 69.6693 42.1621 69.6532 42.1958C69.6338 42.2326 69.6195 42.272 69.6105 42.3128C69.6001 42.3585 69.5943 42.4052 69.593 42.4521C69.593 42.5003 69.593 42.545 69.593 42.5863C69.593 42.6275 69.593 42.6705 69.593 42.7187C69.5937 42.7611 69.5995 42.8033 69.6105 42.8443C69.6176 42.872 69.6325 42.8971 69.6532 42.9165C69.6616 42.9241 69.6713 42.9298 69.6823 42.9334C69.6926 42.9369 69.7042 42.9382 69.7152 42.9371C69.7437 42.9342 69.7708 42.9248 69.7948 42.9096C69.8232 42.8931 69.8497 42.8722 69.8717 42.8477C69.8989 42.8222 69.9202 42.7919 69.9357 42.7583C69.9551 42.7209 69.97 42.6809 69.9784 42.6396C69.9894 42.5905 69.9946 42.5402 69.9939 42.4899V42.4452L69.8426 42.5312C69.84 42.5336 69.8368 42.535 69.8329 42.535C69.8297 42.535 69.8265 42.5336 69.8239 42.5312C69.8174 42.5241 69.8148 42.5148 69.8148 42.5054V42.4487C69.8155 42.4362 69.8187 42.4239 69.8239 42.4125C69.8271 42.4026 69.8336 42.3941 69.8426 42.3885L70.0644 42.2595C70.0676 42.2572 70.0709 42.256 70.0748 42.256C70.0786 42.256 70.0825 42.2572 70.0851 42.2595C70.0883 42.2677 70.0883 42.277 70.0851 42.2853V42.4383C70.0851 42.502 70.0786 42.5654 70.0644 42.6275C70.0515 42.6869 70.0321 42.7446 70.0062 42.7995C69.9823 42.8525 69.9512 42.9017 69.9131 42.9457C69.8769 42.9882 69.8342 43.0243 69.7857 43.0524C69.7469 43.0781 69.7017 43.0925 69.6551 43.0937C69.6376 43.0933 69.6208 43.0895 69.6047 43.0824C69.5885 43.0753 69.5743 43.0651 69.562 43.0524C69.5355 43.0214 69.5161 42.9841 69.507 42.944C69.4934 42.8912 69.4863 42.8369 69.4863 42.7823C69.4876 42.6872 69.4883 42.5914 69.4883 42.4951Z" fill="#B8C1EC"/>
</svg>
