<svg width="20" height="20" viewBox="0 0 20 20" fill="none" xmlns="http://www.w3.org/2000/svg">
<path fill-rule="evenodd" clip-rule="evenodd" d="M10 0C4.47715 0 0 4.47715 0 10C0 15.5228 4.47715 20 10 20C15.5228 20 20 15.5228 20 10C20 4.47715 15.5228 0 10 0ZM7.80071 4.69921C8.36961 4.67333 8.55139 4.66699 9.99985 4.66699H9.99818C11.4471 4.66699 11.6282 4.67333 12.1971 4.69921C12.7649 4.72521 13.1527 4.8151 13.4927 4.947C13.8438 5.08311 14.1404 5.26533 14.4371 5.562C14.7338 5.85845 14.916 6.15601 15.0527 6.50679C15.1838 6.8459 15.2738 7.23346 15.3005 7.80125C15.326 8.37014 15.3327 8.55192 15.3327 10.0004C15.3327 11.4488 15.326 11.6302 15.3005 12.1991C15.2738 12.7666 15.1838 13.1543 15.0527 13.4935C14.916 13.8442 14.7338 14.1418 14.4371 14.4382C14.1408 14.7349 13.8437 14.9175 13.493 15.0538C13.1537 15.1857 12.7657 15.2755 12.1979 15.3015C11.629 15.3274 11.4478 15.3338 9.99918 15.3338C8.55083 15.3338 8.36917 15.3274 7.80027 15.3015C7.2326 15.2755 6.84493 15.1857 6.50559 15.0538C6.15503 14.9175 5.85747 14.7349 5.56114 14.4382C5.26458 14.1418 5.08235 13.8442 4.94602 13.4934C4.81424 13.1543 4.72435 12.7667 4.69824 12.199C4.67246 11.6301 4.66602 11.4488 4.66602 10.0004C4.66602 8.55192 4.67268 8.37003 4.69813 7.80114C4.72368 7.23357 4.81368 6.8459 4.94591 6.50668C5.08258 6.15601 5.2648 5.85845 5.56147 5.562C5.85792 5.26544 6.15548 5.08322 6.50626 4.947C6.84537 4.8151 7.23293 4.72521 7.80071 4.69921Z" fill="#19191B"/>
<path fill-rule="evenodd" clip-rule="evenodd" d="M9.52175 5.6278C9.61465 5.62765 9.71459 5.6277 9.82244 5.62775L10.0002 5.6278C11.4242 5.6278 11.593 5.63291 12.1553 5.65847C12.6753 5.68224 12.9576 5.76913 13.1456 5.84213C13.3945 5.9388 13.5719 6.05436 13.7585 6.24103C13.9451 6.4277 14.0607 6.60548 14.1576 6.85437C14.2306 7.04215 14.3176 7.32437 14.3412 7.84438C14.3668 8.40661 14.3724 8.5755 14.3724 9.99884C14.3724 11.4222 14.3668 11.5911 14.3412 12.1533C14.3175 12.6733 14.2306 12.9555 14.1576 13.1433C14.0609 13.3922 13.9451 13.5694 13.7585 13.756C13.5718 13.9427 13.3946 14.0582 13.1456 14.1549C12.9578 14.2282 12.6753 14.3149 12.1553 14.3387C11.5931 14.3642 11.4242 14.3698 10.0002 14.3698C8.57607 14.3698 8.40729 14.3642 7.84506 14.3387C7.32506 14.3147 7.04283 14.2278 6.85472 14.1548C6.60583 14.0581 6.42805 13.9426 6.24138 13.7559C6.05471 13.5692 5.93916 13.3919 5.84227 13.1429C5.76926 12.9551 5.68226 12.6729 5.6586 12.1529C5.63304 11.5906 5.62793 11.4217 5.62793 9.99751C5.62793 8.57327 5.63304 8.40527 5.6586 7.84304C5.68237 7.32304 5.76926 7.04081 5.84227 6.85281C5.93893 6.60392 6.05471 6.42614 6.24138 6.23947C6.42805 6.0528 6.60583 5.93725 6.85472 5.84036C7.04272 5.76702 7.32506 5.68035 7.84506 5.65647C8.33707 5.63424 8.52774 5.62758 9.52175 5.62646V5.6278ZM12.8471 6.51344C12.4938 6.51344 12.2071 6.79977 12.2071 7.15322C12.2071 7.50656 12.4938 7.79323 12.8471 7.79323C13.2004 7.79323 13.4871 7.50656 13.4871 7.15322C13.4871 6.79989 13.2004 6.51322 12.8471 6.51322V6.51344ZM7.26164 10.0003C7.26164 8.48776 8.48792 7.26144 10.0004 7.26138C11.513 7.26138 12.739 8.48772 12.739 10.0003C12.739 11.5129 11.5131 12.7387 10.0006 12.7387C8.48798 12.7387 7.26164 11.5129 7.26164 10.0003Z" fill="#19191B"/>
<path fill-rule="evenodd" clip-rule="evenodd" d="M10.0005 8.22266C10.9822 8.22266 11.7782 9.01855 11.7782 10.0005C11.7782 10.9822 10.9822 11.7782 10.0005 11.7782C9.01855 11.7782 8.22266 10.9822 8.22266 10.0005C8.22266 9.01855 9.01855 8.22266 10.0005 8.22266V8.22266Z" fill="#19191B"/>
</svg>
