<svg width="20" height="20" viewBox="0 0 20 20" fill="none" xmlns="http://www.w3.org/2000/svg">
<path fill-rule="evenodd" clip-rule="evenodd" d="M10 0C4.47715 0 0 4.47715 0 10C0 15.5228 4.47715 20 10 20C15.5228 20 20 15.5228 20 10C20 4.47715 15.5228 0 10 0ZM4.80055 8.2823H7.06676V15.0913H4.80055V8.2823ZM7.2155 6.17612C7.20079 5.5085 6.72337 5 5.94811 5C5.17285 5 4.66602 5.5085 4.66602 6.17612C4.66602 6.82992 5.15787 7.35306 5.91869 7.35306H5.93318C6.72337 7.35306 7.2155 6.82992 7.2155 6.17612ZM12.6303 8.12263C14.1216 8.12263 15.2396 9.09602 15.2396 11.1875L15.2395 15.0916H12.9734V11.4487C12.9734 10.5337 12.6454 9.90934 11.825 9.90934C11.1989 9.90934 10.826 10.3303 10.6622 10.7368C10.6023 10.8825 10.5876 11.0855 10.5876 11.289V15.0917H8.32112C8.32112 15.0917 8.35099 8.92162 8.32112 8.2827H10.5876V9.24714C10.8884 8.78352 11.4271 8.12263 12.6303 8.12263Z" fill="#19191B"/>
</svg>
