<svg width="20" height="20" viewBox="0 0 20 20" fill="none" xmlns="http://www.w3.org/2000/svg">
<path fill-rule="evenodd" clip-rule="evenodd" d="M10 0C4.47715 0 0 4.47715 0 10C0 15.5228 4.47715 20 10 20C15.5228 20 20 15.5228 20 10C20 4.47715 15.5228 0 10 0ZM9.7213 8.47392L9.70032 8.1279C9.63736 7.23107 10.19 6.41191 11.0643 6.09414C11.3861 5.98115 11.9317 5.96703 12.2884 6.06589C12.4283 6.10826 12.6941 6.24949 12.8829 6.3766L13.2257 6.60964L13.6034 6.48959C13.8133 6.42604 14.093 6.32011 14.219 6.24949C14.3379 6.18594 14.4428 6.15063 14.4428 6.17182C14.4428 6.29186 14.184 6.70144 13.9671 6.92742C13.6734 7.24519 13.7573 7.27344 14.3519 7.06159C14.7086 6.94154 14.7156 6.94154 14.6456 7.07571C14.6037 7.14633 14.3868 7.39349 14.156 7.61946C13.7643 8.00785 13.7433 8.05022 13.7433 8.37506C13.7433 8.87644 13.5055 9.92157 13.2677 10.4936C12.827 11.5669 11.8827 12.6756 10.9384 13.2335C9.60938 14.0173 7.8397 14.2151 6.34981 13.7561C5.85318 13.6007 4.99981 13.2053 4.99981 13.1346C4.99981 13.1135 5.25862 13.0852 5.57339 13.0781C6.2309 13.064 6.88841 12.8804 7.44799 12.5556L7.82571 12.3296L7.39203 12.1813C6.77649 11.9695 6.2239 11.4822 6.08401 11.0232C6.04204 10.8749 6.05603 10.8678 6.44774 10.8678L6.85343 10.8608L6.51069 10.6984C6.10499 10.4936 5.73427 10.1475 5.5524 9.79446C5.4195 9.54024 5.25163 8.89763 5.30059 8.84819C5.31458 8.82701 5.46147 8.86938 5.62935 8.92587C6.11199 9.10242 6.17494 9.06005 5.89515 8.76345C5.37054 8.22677 5.20966 7.4288 5.46147 6.6732L5.58038 6.33423L6.04204 6.79324C6.98634 7.71832 8.09851 8.26914 9.37156 8.43155L9.7213 8.47392Z" fill="#19191B"/>
</svg>
